STARTFONT 2.1
COMMENT $XConsortium: xtfont6.bdf,v 1.2 92/06/30 17:24:37 rws Exp $
COMMENT xtfont6 - 16 byte font. variable width, reverse, chars (0,0)-(1,255)
COMMENT Based on t7 font tf16_varrv:
COMMENT Created by onxtobdf
COMMENT
COMMENT STARTCHAR NAMES were off by 1 corrected July 17th,87
COMMENT
COMMENT six characters with encoding:09,10,12,13,26&27 (decimal)
COMMENT             and ascii values:11,12,14,15,32&33 (octal)
COMMENT             had their BW (glyph width) changed from 1 to 0
COMMENT             This was done to be consistent DWIDTH 0.
COMMENT             corrected Aug 10th, 87
COMMENT
FONT xtfont6
SIZE 14 78 78
FONTBOUNDINGBOX 16 14 -16 -3
STARTPROPERTIES 6
COPYRIGHT "These glyphs are unencumbered"
FONT_ASCENT 11
FONT_DESCENT 3
DEFAULT_CHAR 2
UNDERLINE_POSITION 3
RESOLUTION 78
ENDPROPERTIES
CHARS 504
STARTCHAR ascii001
ENCODING 1
SWIDTH 571 0
DWIDTH -8 0
BBX 7 3 -8 8
BITMAP
c6
6c
38
ENDCHAR
STARTCHAR ascii002
ENCODING 2
SWIDTH 571 0
DWIDTH -8 0
BBX 6 10 -7 0
BITMAP
30
30
00
30
30
18
0c
cc
cc
78
ENDCHAR
STARTCHAR ascii003
ENCODING 3
SWIDTH 571 0
DWIDTH -8 0
BBX 7 10 -7 -3
BITMAP
7c
c6
06
06
c6
c6
7c
00
30
18
ENDCHAR
STARTCHAR ascii004
ENCODING 4
SWIDTH 500 0
DWIDTH -7 0
BBX 6 2 -7 8
BITMAP
cc
cc
ENDCHAR
STARTCHAR ascii005
ENCODING 5
SWIDTH 500 0
DWIDTH -7 0
BBX 4 3 -7 8
BITMAP
30
60
c0
ENDCHAR
STARTCHAR ascii006
ENCODING 6
SWIDTH 714 0
DWIDTH -10 0
BBX 10 10 -10 0
BITMAP
e700
3180
3180
ffc0
3180
3180
3180
3180
3180
3180
ENDCHAR
STARTCHAR ascii007
ENCODING 7
SWIDTH 285 0
DWIDTH -4 0
BBX 3 5 -3 5
BITMAP
c0
60
60
e0
e0
ENDCHAR
STARTCHAR ascii0010
ENCODING 8
SWIDTH 357 0
DWIDTH -5 0
BBX 2 10 -3 0
BITMAP
c0
c0
00
c0
c0
c0
c0
c0
c0
c0
ENDCHAR
STARTCHAR ascii011
ENCODING 9
SWIDTH 0 0
DWIDTH 0 0
COMMENT BBX 1 0 0 10 RSB <= CHAR_WIDTH to be a good font
BBX 0 0 0 10
BITMAP
ENDCHAR
STARTCHAR ascii012
ENCODING 10
SWIDTH 0 0
DWIDTH 0 0
COMMENT BBX 1 0 0 10 RSB <= CHAR_WIDTH to be a good font
BBX 0 0 0 10
BITMAP
ENDCHAR
STARTCHAR ascii013
ENCODING 11
SWIDTH 428 0
DWIDTH -6 0
BBX 4 3 -6 8
BITMAP
c0
60
30
ENDCHAR
STARTCHAR ascii014
ENCODING 12
SWIDTH 0 0
DWIDTH 0 0
COMMENT BBX 1 0 0 10 RSB <= CHAR_WIDTH to be a good font
BBX 0 0 0 10
BITMAP
ENDCHAR
STARTCHAR ascii015
ENCODING 13
SWIDTH 0 0
DWIDTH 0 0
COMMENT BBX 1 0 0 10 RSB <= CHAR_WIDTH to be a good font
BBX 0 0 0 10
BITMAP
ENDCHAR
STARTCHAR ascii016
ENCODING 14
SWIDTH 500 0
DWIDTH -7 0
BBX 5 2 -7 8
BITMAP
f8
f8
ENDCHAR
STARTCHAR ascii017
ENCODING 15
SWIDTH 1142 0
DWIDTH -16 0
BBX 0 0 -16 10
BITMAP
ENDCHAR
STARTCHAR ascii020
ENCODING 16
SWIDTH 571 0
DWIDTH -8 0
BBX 7 2 -8 8
BITMAP
dc
76
ENDCHAR
STARTCHAR ascii021
ENCODING 17
SWIDTH 1000 0
DWIDTH -14 0
BBX 13 10 -13 0
BITMAP
dce0
c630
0630
dff8
c630
c630
c630
c630
c630
c630
ENDCHAR
STARTCHAR ascii022
ENCODING 18
SWIDTH 1000 0
DWIDTH -14 0
BBX 13 10 -13 0
BITMAP
dce0
c630
c630
dff8
c630
c630
c630
c630
c630
c630
ENDCHAR
STARTCHAR ascii023
ENCODING 19
SWIDTH 1142 0
DWIDTH -16 0
BBX 16 2 -16 3
BITMAP
ffff
ffff
ENDCHAR
STARTCHAR ascii024
ENCODING 20
SWIDTH 642 0
DWIDTH -9 0
BBX 8 10 -8 0
BITMAP
dc
c6
06
df
c6
c6
c6
c6
c6
c6
ENDCHAR
STARTCHAR ascii025
ENCODING 21
SWIDTH 642 0
DWIDTH -9 0
BBX 8 10 -8 0
BITMAP
dc
c6
c6
df
c6
c6
c6
c6
c6
c6
ENDCHAR
STARTCHAR ascii026
ENCODING 22
SWIDTH 571 0
DWIDTH -8 0
BBX 8 2 -8 3
BITMAP
ff
ff
ENDCHAR
STARTCHAR ascii027
ENCODING 23
SWIDTH 500 0
DWIDTH -7 0
BBX 6 3 -7 8
BITMAP
84
fc
78
ENDCHAR
STARTCHAR ascii030
ENCODING 24
SWIDTH 1142 0
DWIDTH -16 0
BBX 8 2 -12 3
BITMAP
ff
ff
ENDCHAR
STARTCHAR ascii031
ENCODING 25
SWIDTH 642 0
DWIDTH -9 0
BBX 0 0 -9 10
BITMAP
ENDCHAR
STARTCHAR ascii032
ENCODING 26
SWIDTH 0 0
DWIDTH 0 0
COMMENT BBX 1 0 0 10 RSB <= CHAR_WIDTH to be a good font
BBX 0 0 0 10
BITMAP
ENDCHAR
STARTCHAR ascii033
ENCODING 27
SWIDTH 0 0
DWIDTH 0 0
COMMENT BBX 1 0 0 10 RSB <= CHAR_WIDTH to be a good font
BBX 0 0 0 10
BITMAP
ENDCHAR
STARTCHAR ascii034
ENCODING 28
SWIDTH 571 0
DWIDTH -8 0
BBX 0 0 -8 10
BITMAP
ENDCHAR
STARTCHAR ascii035
ENCODING 29
SWIDTH 428 0
DWIDTH -6 0
BBX 2 2 -6 -3
BITMAP
c0
c0
ENDCHAR
STARTCHAR ascii036
ENCODING 30
SWIDTH 571 0
DWIDTH -8 0
BBX 7 2 -8 8
BITMAP
dc
76
ENDCHAR
STARTCHAR ascii037
ENCODING 31
SWIDTH 500 0
DWIDTH -7 0
BBX 5 4 -7 7
BITMAP
70
d8
d8
70
ENDCHAR
STARTCHAR space
ENCODING 32
SWIDTH 500 0
DWIDTH -7 0
BBX 0 0 -7 10
BITMAP
ENDCHAR
STARTCHAR exclam
ENCODING 33
SWIDTH 285 0
DWIDTH -4 0
BBX 2 10 -3 0
BITMAP
c0
c0
c0
c0
c0
c0
c0
00
c0
c0
ENDCHAR
STARTCHAR quotedbl
ENCODING 34
SWIDTH 500 0
DWIDTH -7 0
BBX 5 4 -6 6
BITMAP
d8
d8
d8
d8
ENDCHAR
STARTCHAR numbersign
ENCODING 35
SWIDTH 857 0
DWIDTH -12 0
BBX 10 10 -11 0
BITMAP
cc00
cc00
6600
ff80
3300
3300
7fc0
1980
0cc0
0cc0
ENDCHAR
STARTCHAR dollar
ENCODING 36
SWIDTH 642 0
DWIDTH -9 0
BBX 7 12 -8 -1
BITMAP
10
7c
d6
d6
16
3e
78
d0
d6
d6
7c
10
ENDCHAR
STARTCHAR percent
ENCODING 37
SWIDTH 1000 0
DWIDTH -14 0
BBX 12 10 -13 0
BITMAP
18e0
19b0
0db0
0ce0
0600
0600
7300
db00
d980
7180
ENDCHAR
STARTCHAR ampersand
ENCODING 38
SWIDTH 785 0
DWIDTH -11 0
BBX 9 10 -10 0
BITMAP
0e00
1b00
1b00
0a00
0e00
df00
7180
3180
7980
ef00
ENDCHAR
STARTCHAR quoteright
ENCODING 39
SWIDTH 285 0
DWIDTH -4 0
BBX 3 5 -3 5
BITMAP
e0
e0
c0
c0
60
ENDCHAR
STARTCHAR parenleft
ENCODING 40
SWIDTH 428 0
DWIDTH -6 0
BBX 4 12 -5 -2
BITMAP
c0
60
60
30
30
30
30
30
30
60
60
c0
ENDCHAR
STARTCHAR parenright
ENCODING 41
SWIDTH 428 0
DWIDTH -6 0
BBX 4 12 -5 -2
BITMAP
30
60
60
c0
c0
c0
c0
c0
c0
60
60
30
ENDCHAR
STARTCHAR asterisk
ENCODING 42
SWIDTH 500 0
DWIDTH -7 0
BBX 5 6 -6 5
BITMAP
20
a8
70
70
a8
20
ENDCHAR
STARTCHAR plus
ENCODING 43
SWIDTH 714 0
DWIDTH -10 0
BBX 8 8 -9 0
BITMAP
18
18
18
ff
ff
18
18
18
ENDCHAR
STARTCHAR comma
ENCODING 44
SWIDTH 285 0
DWIDTH -4 0
BBX 2 5 -3 -3
BITMAP
c0
c0
80
80
40
ENDCHAR
STARTCHAR hyphen
ENCODING 45
SWIDTH 642 0
DWIDTH -9 0
BBX 6 2 -8 3
BITMAP
fc
fc
ENDCHAR
STARTCHAR period
ENCODING 46
SWIDTH 285 0
DWIDTH -4 0
BBX 2 2 -3 0
BITMAP
c0
c0
ENDCHAR
STARTCHAR slash
ENCODING 47
SWIDTH 571 0
DWIDTH -8 0
BBX 6 10 -7 0
BITMAP
c0
c0
60
60
30
30
18
18
0c
0c
ENDCHAR
STARTCHAR zero
ENCODING 48
SWIDTH 642 0
DWIDTH -9 0
BBX 7 10 -8 0
BITMAP
38
6c
c6
c6
c6
c6
c6
c6
6c
38
ENDCHAR
STARTCHAR one
ENCODING 49
SWIDTH 642 0
DWIDTH -9 0
BBX 5 10 -7 0
BITMAP
c0
e0
f8
c0
c0
c0
c0
c0
c0
c0
ENDCHAR
STARTCHAR two
ENCODING 50
SWIDTH 642 0
DWIDTH -9 0
BBX 7 10 -8 0
BITMAP
7c
c6
c6
c0
60
30
18
0c
06
fe
ENDCHAR
STARTCHAR three
ENCODING 51
SWIDTH 642 0
DWIDTH -9 0
BBX 7 10 -8 0
BITMAP
7c
c6
c6
c0
70
c0
c0
c6
c6
7c
ENDCHAR
STARTCHAR four
ENCODING 52
SWIDTH 642 0
DWIDTH -9 0
BBX 7 10 -8 0
BITMAP
60
70
78
68
6c
66
66
fe
60
60
ENDCHAR
STARTCHAR five
ENCODING 53
SWIDTH 642 0
DWIDTH -9 0
BBX 7 10 -8 0
BITMAP
fc
0c
0c
7e
c6
c6
c0
c6
c6
7c
ENDCHAR
STARTCHAR six
ENCODING 54
SWIDTH 642 0
DWIDTH -9 0
BBX 7 10 -8 0
BITMAP
78
cc
c6
06
7e
c6
c6
c6
c6
7c
ENDCHAR
STARTCHAR seven
ENCODING 55
SWIDTH 642 0
DWIDTH -9 0
BBX 7 10 -8 0
BITMAP
fe
c0
60
30
30
18
18
0c
0c
0c
ENDCHAR
STARTCHAR eight
ENCODING 56
SWIDTH 642 0
DWIDTH -9 0
BBX 7 10 -8 0
BITMAP
7c
c6
c6
c6
7c
c6
c6
c6
c6
7c
ENDCHAR
STARTCHAR nine
ENCODING 57
SWIDTH 642 0
DWIDTH -9 0
BBX 7 10 -8 0
BITMAP
7c
c6
c6
c6
c6
fc
c0
c6
66
3c
ENDCHAR
STARTCHAR colon
ENCODING 58
SWIDTH 285 0
DWIDTH -4 0
BBX 2 7 -3 0
BITMAP
c0
c0
00
00
00
c0
c0
ENDCHAR
STARTCHAR semicolon
ENCODING 59
SWIDTH 285 0
DWIDTH -4 0
BBX 2 10 -3 -3
BITMAP
c0
c0
00
00
00
c0
c0
80
80
40
ENDCHAR
STARTCHAR less
ENCODING 60
SWIDTH 571 0
DWIDTH -8 0
BBX 6 10 -7 0
BITMAP
c0
60
30
18
0c
0c
18
30
60
c0
ENDCHAR
STARTCHAR equal
ENCODING 61
SWIDTH 571 0
DWIDTH -8 0
BBX 5 5 -7 1
BITMAP
f8
f8
00
f8
f8
ENDCHAR
STARTCHAR greater
ENCODING 62
SWIDTH 571 0
DWIDTH -8 0
BBX 6 10 -7 0
BITMAP
0c
18
30
60
c0
c0
60
30
18
0c
ENDCHAR
STARTCHAR question
ENCODING 63
SWIDTH 571 0
DWIDTH -8 0
BBX 6 10 -7 0
BITMAP
78
cc
cc
c0
60
30
30
00
30
30
ENDCHAR
STARTCHAR at
ENCODING 64
SWIDTH 1000 0
DWIDTH -14 0
BBX 12 10 -13 0
BITMAP
3fc0
6060
cf30
d9b0
d9b0
d9b0
59b0
3730
8060
7fc0
ENDCHAR
STARTCHAR A
ENCODING 65
SWIDTH 642 0
DWIDTH -9 0
BBX 8 10 -8 0
BITMAP
18
18
3c
3c
24
66
7e
66
c3
c3
ENDCHAR
STARTCHAR B
ENCODING 66
SWIDTH 571 0
DWIDTH -8 0
BBX 7 10 -7 0
BITMAP
3e
66
66
66
7e
c6
c6
c6
c6
7e
ENDCHAR
STARTCHAR C
ENCODING 67
SWIDTH 642 0
DWIDTH -9 0
BBX 8 10 -8 0
BITMAP
7c
c6
c3
03
03
03
c3
c3
c6
7c
ENDCHAR
STARTCHAR D
ENCODING 68
SWIDTH 642 0
DWIDTH -9 0
BBX 8 10 -8 0
BITMAP
3f
63
c3
c3
c3
c3
c3
c3
63
3f
ENDCHAR
STARTCHAR E
ENCODING 69
SWIDTH 571 0
DWIDTH -8 0
BBX 7 10 -7 0
BITMAP
fe
06
06
06
7e
06
06
06
06
fe
ENDCHAR
STARTCHAR F
ENCODING 70
SWIDTH 571 0
DWIDTH -8 0
BBX 7 10 -7 0
BITMAP
fe
06
06
06
7e
06
06
06
06
06
ENDCHAR
STARTCHAR G
ENCODING 71
SWIDTH 714 0
DWIDTH -10 0
BBX 9 10 -9 0
BITMAP
7e00
c300
c180
0180
0180
f180
c180
c180
e300
de00
ENDCHAR
STARTCHAR H
ENCODING 72
SWIDTH 642 0
DWIDTH -9 0
BBX 8 10 -8 0
BITMAP
c3
c3
c3
c3
ff
c3
c3
c3
c3
c3
ENDCHAR
STARTCHAR I
ENCODING 73
SWIDTH 214 0
DWIDTH -3 0
BBX 2 10 -2 0
BITMAP
c0
c0
c0
c0
c0
c0
c0
c0
c0
c0
ENDCHAR
STARTCHAR J
ENCODING 74
SWIDTH 500 0
DWIDTH -7 0
BBX 6 10 -6 0
BITMAP
c0
c0
c0
c0
c0
c0
c0
cc
cc
78
ENDCHAR
STARTCHAR K
ENCODING 75
SWIDTH 642 0
DWIDTH -9 0
BBX 8 10 -8 0
BITMAP
63
33
1b
0f
07
0f
1b
33
63
c3
ENDCHAR
STARTCHAR L
ENCODING 76
SWIDTH 500 0
DWIDTH -7 0
BBX 6 10 -6 0
BITMAP
0c
0c
0c
0c
0c
0c
0c
0c
0c
fc
ENDCHAR
STARTCHAR M
ENCODING 77
SWIDTH 857 0
DWIDTH -12 0
BBX 11 10 -11 0
BITMAP
e0e0
e0e0
f1e0
f1e0
db60
db60
db60
ce60
ce60
c460
ENDCHAR
STARTCHAR N
ENCODING 78
SWIDTH 642 0
DWIDTH -9 0
BBX 8 10 -8 0
BITMAP
c3
c7
c7
cf
cf
db
db
f3
f3
e3
ENDCHAR
STARTCHAR O
ENCODING 79
SWIDTH 714 0
DWIDTH -10 0
BBX 9 10 -9 0
BITMAP
3e00
6300
c180
c180
c180
c180
c180
c180
6300
3e00
ENDCHAR
STARTCHAR P
ENCODING 80
SWIDTH 571 0
DWIDTH -8 0
BBX 7 10 -7 0
BITMAP
7e
c6
c6
c6
c6
7e
06
06
06
06
ENDCHAR
STARTCHAR Q
ENCODING 81
SWIDTH 714 0
DWIDTH -10 0
BBX 9 11 -9 -1
BITMAP
3e00
6300
c180
c180
c180
c180
c180
d980
7300
7e00
c000
ENDCHAR
STARTCHAR R
ENCODING 82
SWIDTH 642 0
DWIDTH -9 0
BBX 8 10 -8 0
BITMAP
7f
c3
c3
c3
7f
c3
c3
c3
c3
c3
ENDCHAR
STARTCHAR S
ENCODING 83
SWIDTH 571 0
DWIDTH -8 0
BBX 7 10 -7 0
BITMAP
7c
c6
c6
1e
7c
f0
c6
c6
c6
7c
ENDCHAR
STARTCHAR T
ENCODING 84
SWIDTH 642 0
DWIDTH -9 0
BBX 8 10 -8 0
BITMAP
ff
18
18
18
18
18
18
18
18
18
ENDCHAR
STARTCHAR U
ENCODING 85
SWIDTH 642 0
DWIDTH -9 0
BBX 8 10 -8 0
BITMAP
c3
c3
c3
c3
c3
c3
c3
c3
66
3c
ENDCHAR
STARTCHAR V
ENCODING 86
SWIDTH 642 0
DWIDTH -9 0
BBX 8 10 -8 0
BITMAP
c3
c3
c3
66
66
66
24
3c
18
18
ENDCHAR
STARTCHAR W
ENCODING 87
SWIDTH 1000 0
DWIDTH -14 0
BBX 13 10 -13 0
BITMAP
c218
c218
6730
6730
6730
2fa0
3de0
38e0
18c0
18c0
ENDCHAR
STARTCHAR X
ENCODING 88
SWIDTH 642 0
DWIDTH -9 0
BBX 8 10 -8 0
BITMAP
c3
c3
66
3c
18
18
3c
66
c3
c3
ENDCHAR
STARTCHAR Y
ENCODING 89
SWIDTH 642 0
DWIDTH -9 0
BBX 8 10 -8 0
BITMAP
c3
c3
66
66
3c
18
18
18
18
18
ENDCHAR
STARTCHAR Z
ENCODING 90
SWIDTH 642 0
DWIDTH -9 0
BBX 8 10 -8 0
BITMAP
ff
c0
60
30
18
18
0c
06
03
ff
ENDCHAR
STARTCHAR braketleft
ENCODING 91
SWIDTH 500 0
DWIDTH -7 0
BBX 5 13 -6 -3
BITMAP
f8
18
18
18
18
18
18
18
18
18
18
18
f8
ENDCHAR
STARTCHAR backslash
ENCODING 92
SWIDTH 571 0
DWIDTH -8 0
BBX 6 10 -7 0
BITMAP
0c
0c
18
18
30
30
60
60
c0
c0
ENDCHAR
STARTCHAR bracketright
ENCODING 93
SWIDTH 500 0
DWIDTH -7 0
BBX 5 13 -6 -3
BITMAP
f8
c0
c0
c0
c0
c0
c0
c0
c0
c0
c0
c0
f8
ENDCHAR
STARTCHAR asciicircum
ENCODING 94
SWIDTH 571 0
DWIDTH -8 0
BBX 6 8 -7 1
BITMAP
30
78
fc
b4
30
30
30
30
ENDCHAR
STARTCHAR underscore
ENCODING 95
SWIDTH 714 0
DWIDTH -10 0
BBX 8 6 -9 2
BITMAP
0c
06
ff
ff
06
0c
ENDCHAR
STARTCHAR quoteleft
ENCODING 96
SWIDTH 285 0
DWIDTH -4 0
BBX 3 5 -3 5
BITMAP
c0
60
60
e0
e0
ENDCHAR
STARTCHAR a
ENCODING 97
SWIDTH 571 0
DWIDTH -8 0
BBX 7 7 -7 0
BITMAP
3c
66
60
7c
66
66
dc
ENDCHAR
STARTCHAR b
ENCODING 98
SWIDTH 571 0
DWIDTH -8 0
BBX 7 10 -7 0
BITMAP
06
06
06
7e
c6
c6
c6
c6
c6
7e
ENDCHAR
STARTCHAR c
ENCODING 99
SWIDTH 571 0
DWIDTH -8 0
BBX 7 7 -7 0
BITMAP
7c
c6
06
06
c6
c6
7c
ENDCHAR
STARTCHAR d
ENCODING 100
SWIDTH 571 0
DWIDTH -8 0
BBX 7 10 -7 0
BITMAP
c0
c0
c0
fc
c6
c6
c6
c6
c6
fc
ENDCHAR
STARTCHAR e
ENCODING 101
SWIDTH 571 0
DWIDTH -8 0
BBX 7 7 -7 0
BITMAP
7c
c6
c6
fe
06
c6
7c
ENDCHAR
STARTCHAR f
ENCODING 102
SWIDTH 428 0
DWIDTH -6 0
BBX 5 10 -5 0
BITMAP
e0
30
30
f8
30
30
30
30
30
30
ENDCHAR
STARTCHAR g
ENCODING 103
SWIDTH 571 0
DWIDTH -8 0
BBX 7 10 -7 -3
BITMAP
fc
c6
c6
c6
c6
c6
fc
c0
c6
7c
ENDCHAR
STARTCHAR h
ENCODING 104
SWIDTH 571 0
DWIDTH -8 0
BBX 7 10 -7 0
BITMAP
06
06
06
7e
c6
c6
c6
c6
c6
c6
ENDCHAR
STARTCHAR i
ENCODING 105
SWIDTH 214 0
DWIDTH -3 0
BBX 2 10 -2 0
BITMAP
c0
c0
00
c0
c0
c0
c0
c0
c0
c0
ENDCHAR
STARTCHAR j
ENCODING 106
SWIDTH 357 0
DWIDTH -5 0
BBX 4 12 -4 -2
BITMAP
c0
c0
00
c0
c0
c0
c0
c0
c0
c0
c0
70
ENDCHAR
STARTCHAR k
ENCODING 107
SWIDTH 571 0
DWIDTH -8 0
BBX 7 10 -7 0
BITMAP
06
06
06
66
36
1e
1e
36
66
c6
ENDCHAR
STARTCHAR l
ENCODING 108
SWIDTH 214 0
DWIDTH -3 0
BBX 2 10 -2 0
BITMAP
c0
c0
c0
c0
c0
c0
c0
c0
c0
c0
ENDCHAR
STARTCHAR m
ENCODING 109
SWIDTH 785 0
DWIDTH -11 0
BBX 10 7 -10 0
BITMAP
77c0
ccc0
ccc0
ccc0
ccc0
ccc0
ccc0
ENDCHAR
STARTCHAR n
ENCODING 110
SWIDTH 571 0
DWIDTH -8 0
BBX 7 7 -7 0
BITMAP
7e
c6
c6
c6
c6
c6
c6
ENDCHAR
STARTCHAR o
ENCODING 111
SWIDTH 571 0
DWIDTH -8 0
BBX 7 7 -7 0
BITMAP
7c
c6
c6
c6
c6
c6
7c
ENDCHAR
STARTCHAR p
ENCODING 112
SWIDTH 571 0
DWIDTH -8 0
BBX 7 10 -7 -3
BITMAP
7e
c6
c6
c6
c6
c6
7e
06
06
06
ENDCHAR
STARTCHAR q
ENCODING 113
SWIDTH 571 0
DWIDTH -8 0
BBX 7 10 -7 -3
BITMAP
fc
c6
c6
c6
c6
c6
fc
c0
c0
c0
ENDCHAR
STARTCHAR r
ENCODING 114
SWIDTH 428 0
DWIDTH -6 0
BBX 5 7 -5 0
BITMAP
f8
d8
18
18
18
18
18
ENDCHAR
STARTCHAR s
ENCODING 115
SWIDTH 500 0
DWIDTH -7 0
BBX 6 7 -6 0
BITMAP
78
cc
1c
78
e0
cc
78
ENDCHAR
STARTCHAR t
ENCODING 116
SWIDTH 428 0
DWIDTH -6 0
BBX 5 9 -5 0
BITMAP
30
30
f8
30
30
30
30
30
e0
ENDCHAR
STARTCHAR u
ENCODING 117
SWIDTH 571 0
DWIDTH -8 0
BBX 7 7 -7 0
BITMAP
c6
c6
c6
c6
c6
c6
fc
ENDCHAR
STARTCHAR v
ENCODING 118
SWIDTH 642 0
DWIDTH -9 0
BBX 8 7 -8 0
BITMAP
c3
c3
66
66
24
3c
18
ENDCHAR
STARTCHAR w
ENCODING 119
SWIDTH 857 0
DWIDTH -12 0
BBX 11 7 -11 0
BITMAP
c460
c460
6ec0
6ec0
7bc0
3180
3180
ENDCHAR
STARTCHAR x
ENCODING 120
SWIDTH 500 0
DWIDTH -7 0
BBX 6 7 -6 0
BITMAP
cc
cc
78
30
78
cc
cc
ENDCHAR
STARTCHAR y
ENCODING 121
SWIDTH 571 0
DWIDTH -8 0
BBX 7 10 -7 -3
BITMAP
c6
c6
cc
6c
68
78
30
30
36
1c
ENDCHAR
STARTCHAR z
ENCODING 122
SWIDTH 500 0
DWIDTH -7 0
BBX 6 7 -6 0
BITMAP
fc
c0
60
30
18
0c
fc
ENDCHAR
STARTCHAR braceleft
ENCODING 123
SWIDTH 571 0
DWIDTH -8 0
BBX 6 13 -7 -3
BITMAP
e0
30
30
30
30
30
1c
30
30
30
30
30
e0
ENDCHAR
STARTCHAR bar
ENCODING 124
SWIDTH 357 0
DWIDTH -5 0
BBX 2 13 -4 -3
BITMAP
c0
c0
c0
c0
c0
c0
c0
c0
c0
c0
c0
c0
c0
ENDCHAR
STARTCHAR braceright
ENCODING 125
SWIDTH 571 0
DWIDTH -8 0
BBX 6 13 -7 -3
BITMAP
1c
30
30
30
30
30
e0
30
30
30
30
30
1c
ENDCHAR
STARTCHAR tilda
ENCODING 126
SWIDTH 714 0
DWIDTH -10 0
BBX 8 3 -9 3
BITMAP
cc
7e
33
ENDCHAR
STARTCHAR ascii001b
ENCODING 127
SWIDTH 571 0
DWIDTH -8 0
BBX 7 3 -8 8
BITMAP
38
6c
c6
ENDCHAR
STARTCHAR ascii002b
ENCODING 128
SWIDTH 571 0
DWIDTH -8 0
BBX 6 10 -7 0
BITMAP
78
cc
cc
0c
18
30
30
00
30
30
ENDCHAR
STARTCHAR ascii003b
ENCODING 129
SWIDTH 571 0
DWIDTH -8 0
BBX 7 10 -7 -3
BITMAP
18
30
00
7c
c6
c6
06
06
c6
7c
ENDCHAR
STARTCHAR ascii004b
ENCODING 130
SWIDTH 500 0
DWIDTH -7 0
BBX 6 2 -7 8
BITMAP
cc
cc
ENDCHAR
STARTCHAR ascii005b
ENCODING 131
SWIDTH 500 0
DWIDTH -7 0
BBX 4 3 -7 8
BITMAP
c0
60
30
ENDCHAR
STARTCHAR ascii006b
ENCODING 132
SWIDTH 714 0
DWIDTH -10 0
BBX 10 10 -10 0
BITMAP
3180
3180
3180
3180
3180
3180
ffc0
3180
3180
e700
ENDCHAR
STARTCHAR ascii007b
ENCODING 133
SWIDTH 285 0
DWIDTH -4 0
BBX 3 5 -3 5
BITMAP
e0
e0
60
60
c0
ENDCHAR
STARTCHAR ascii0010b
ENCODING 134
SWIDTH 357 0
DWIDTH -5 0
BBX 2 10 -3 0
BITMAP
c0
c0
c0
c0
c0
c0
c0
00
c0
c0
ENDCHAR
STARTCHAR ascii011b
ENCODING 135
SWIDTH 0 0
DWIDTH 0 0
COMMENT BBX 1 0 0 10 RSB <= CHAR_WIDTH to be a good font
BBX 0 0 0 10
BITMAP
ENDCHAR
STARTCHAR ascii012b
ENCODING 136
SWIDTH 0 0
DWIDTH 0 0
COMMENT BBX 1 0 0 10 RSB <= CHAR_WIDTH to be a good font
BBX 0 0 0 10
BITMAP
ENDCHAR
STARTCHAR ascii013b
ENCODING 137
SWIDTH 428 0
DWIDTH -6 0
BBX 4 3 -6 8
BITMAP
30
60
c0
ENDCHAR
STARTCHAR ascii014b
ENCODING 138
SWIDTH 0 0
DWIDTH 0 0
COMMENT BBX 1 0 0 10 RSB <= CHAR_WIDTH to be a good font
BBX 0 0 0 10
BITMAP
ENDCHAR
STARTCHAR ascii015b
ENCODING 139
SWIDTH 0 0
DWIDTH 0 0
COMMENT BBX 1 0 0 10 RSB <= CHAR_WIDTH to be a good font
BBX 0 0 0 10
BITMAP
ENDCHAR
STARTCHAR ascii016b
ENCODING 140
SWIDTH 500 0
DWIDTH -7 0
BBX 5 2 -7 8
BITMAP
f8
f8
ENDCHAR
STARTCHAR ascii017b
ENCODING 141
SWIDTH 1142 0
DWIDTH -16 0
BBX 0 0 -16 10
BITMAP
ENDCHAR
STARTCHAR ascii020b
ENCODING 142
SWIDTH 571 0
DWIDTH -8 0
BBX 7 2 -8 8
BITMAP
76
dc
ENDCHAR
STARTCHAR ascii021b
ENCODING 143
SWIDTH 1000 0
DWIDTH -14 0
BBX 13 10 -13 0
BITMAP
c630
c630
c630
c630
c630
c630
dff8
0630
c630
dce0
ENDCHAR
STARTCHAR ascii022b
ENCODING 144
SWIDTH 1000 0
DWIDTH -14 0
BBX 13 10 -13 0
BITMAP
c630
c630
c630
c630
c630
c630
dff8
c630
c630
dce0
ENDCHAR
STARTCHAR ascii023b
ENCODING 145
SWIDTH 1142 0
DWIDTH -16 0
BBX 16 2 -16 3
BITMAP
ffff
ffff
ENDCHAR
STARTCHAR ascii024b
ENCODING 146
SWIDTH 642 0
DWIDTH -9 0
BBX 8 10 -8 0
BITMAP
c6
c6
c6
c6
c6
c6
df
06
c6
dc
ENDCHAR
STARTCHAR ascii025b
ENCODING 147
SWIDTH 642 0
DWIDTH -9 0
BBX 8 10 -8 0
BITMAP
c6
c6
c6
c6
c6
c6
df
c6
c6
dc
ENDCHAR
STARTCHAR ascii026b
ENCODING 148
SWIDTH 571 0
DWIDTH -8 0
BBX 8 2 -8 3
BITMAP
ff
ff
ENDCHAR
STARTCHAR ascii027b
ENCODING 149
SWIDTH 500 0
DWIDTH -7 0
BBX 6 3 -7 8
BITMAP
78
fc
84
ENDCHAR
STARTCHAR ascii030b
ENCODING 150
SWIDTH 1142 0
DWIDTH -16 0
BBX 8 2 -12 3
BITMAP
ff
ff
ENDCHAR
STARTCHAR ascii031b
ENCODING 151
SWIDTH 642 0
DWIDTH -9 0
BBX 0 0 -9 10
BITMAP
ENDCHAR
STARTCHAR ascii032b
ENCODING 152
SWIDTH 0 0
DWIDTH 0 0
COMMENT BBX 1 0 0 10 RSB <= CHAR_WIDTH to be a good font
BBX 0 0 0 10
BITMAP
ENDCHAR
STARTCHAR ascii033b
ENCODING 153
SWIDTH 0 0
DWIDTH 0 0
COMMENT BBX 1 0 0 10 RSB <= CHAR_WIDTH to be a good font
BBX 0 0 0 10
BITMAP
ENDCHAR
STARTCHAR ascii034b
ENCODING 154
SWIDTH 571 0
DWIDTH -8 0
BBX 0 0 -8 10
BITMAP
ENDCHAR
STARTCHAR ascii035b
ENCODING 155
SWIDTH 428 0
DWIDTH -6 0
BBX 2 2 -6 -3
BITMAP
c0
c0
ENDCHAR
STARTCHAR ascii036b
ENCODING 156
SWIDTH 571 0
DWIDTH -8 0
BBX 7 2 -8 8
BITMAP
76
dc
ENDCHAR
STARTCHAR ascii037b
ENCODING 157
SWIDTH 500 0
DWIDTH -7 0
BBX 5 4 -7 7
BITMAP
70
d8
d8
70
ENDCHAR
STARTCHAR spaceb
ENCODING 158
SWIDTH 500 0
DWIDTH -7 0
BBX 0 0 -7 10
BITMAP
ENDCHAR
STARTCHAR exclamb
ENCODING 159
SWIDTH 285 0
DWIDTH -4 0
BBX 2 10 -3 0
BITMAP
c0
c0
00
c0
c0
c0
c0
c0
c0
c0
ENDCHAR
STARTCHAR quotedblb
ENCODING 160
SWIDTH 500 0
DWIDTH -7 0
BBX 5 4 -6 6
BITMAP
d8
d8
d8
d8
ENDCHAR
STARTCHAR numbersignb
ENCODING 161
SWIDTH 857 0
DWIDTH -12 0
BBX 10 10 -11 0
BITMAP
0cc0
0cc0
1980
7fc0
3300
3300
ff80
6600
cc00
cc00
ENDCHAR
STARTCHAR dollarb
ENCODING 162
SWIDTH 642 0
DWIDTH -9 0
BBX 7 12 -8 -1
BITMAP
10
7c
d6
d6
d0
78
3e
16
d6
d6
7c
10
ENDCHAR
STARTCHAR percentb
ENCODING 163
SWIDTH 1000 0
DWIDTH -14 0
BBX 12 10 -13 0
BITMAP
7180
d980
db00
7300
0600
0600
0ce0
0db0
19b0
18e0
ENDCHAR
STARTCHAR ampersandb
ENCODING 164
SWIDTH 785 0
DWIDTH -11 0
BBX 9 10 -10 0
BITMAP
ef00
7980
3180
7180
df00
0e00
0a00
1b00
1b00
0e00
ENDCHAR
STARTCHAR quoterightb
ENCODING 165
SWIDTH 285 0
DWIDTH -4 0
BBX 3 5 -3 5
BITMAP
60
c0
c0
e0
e0
ENDCHAR
STARTCHAR parenleftb
ENCODING 166
SWIDTH 428 0
DWIDTH -6 0
BBX 4 12 -5 -2
BITMAP
c0
60
60
30
30
30
30
30
30
60
60
c0
ENDCHAR
STARTCHAR parenrightb
ENCODING 167
SWIDTH 428 0
DWIDTH -6 0
BBX 4 12 -5 -2
BITMAP
30
60
60
c0
c0
c0
c0
c0
c0
60
60
30
ENDCHAR
STARTCHAR asteriskb
ENCODING 168
SWIDTH 500 0
DWIDTH -7 0
BBX 5 6 -6 5
BITMAP
20
a8
70
70
a8
20
ENDCHAR
STARTCHAR plusb
ENCODING 169
SWIDTH 714 0
DWIDTH -10 0
BBX 8 8 -9 0
BITMAP
18
18
18
ff
ff
18
18
18
ENDCHAR
STARTCHAR commab
ENCODING 170
SWIDTH 285 0
DWIDTH -4 0
BBX 2 5 -3 -3
BITMAP
40
80
80
c0
c0
ENDCHAR
STARTCHAR hyphenb
ENCODING 171
SWIDTH 642 0
DWIDTH -9 0
BBX 6 2 -8 3
BITMAP
fc
fc
ENDCHAR
STARTCHAR periodb
ENCODING 172
SWIDTH 285 0
DWIDTH -4 0
BBX 2 2 -3 0
BITMAP
c0
c0
ENDCHAR
STARTCHAR slashb
ENCODING 173
SWIDTH 571 0
DWIDTH -8 0
BBX 6 10 -7 0
BITMAP
0c
0c
18
18
30
30
60
60
c0
c0
ENDCHAR
STARTCHAR zerob
ENCODING 174
SWIDTH 642 0
DWIDTH -9 0
BBX 7 10 -8 0
BITMAP
38
6c
c6
c6
c6
c6
c6
c6
6c
38
ENDCHAR
STARTCHAR oneb
ENCODING 175
SWIDTH 642 0
DWIDTH -9 0
BBX 5 10 -7 0
BITMAP
c0
c0
c0
c0
c0
c0
c0
f8
e0
c0
ENDCHAR
STARTCHAR twob
ENCODING 176
SWIDTH 642 0
DWIDTH -9 0
BBX 7 10 -8 0
BITMAP
fe
06
0c
18
30
60
c0
c6
c6
7c
ENDCHAR
STARTCHAR threeb
ENCODING 177
SWIDTH 642 0
DWIDTH -9 0
BBX 7 10 -8 0
BITMAP
7c
c6
c6
c0
c0
70
c0
c6
c6
7c
ENDCHAR
STARTCHAR fourb
ENCODING 178
SWIDTH 642 0
DWIDTH -9 0
BBX 7 10 -8 0
BITMAP
60
60
fe
66
66
6c
68
78
70
60
ENDCHAR
STARTCHAR fiveb
ENCODING 179
SWIDTH 642 0
DWIDTH -9 0
BBX 7 10 -8 0
BITMAP
7c
c6
c6
c0
c6
c6
7e
0c
0c
fc
ENDCHAR
STARTCHAR sixb
ENCODING 180
SWIDTH 642 0
DWIDTH -9 0
BBX 7 10 -8 0
BITMAP
7c
c6
c6
c6
c6
7e
06
c6
cc
78
ENDCHAR
STARTCHAR sevenb
ENCODING 181
SWIDTH 642 0
DWIDTH -9 0
BBX 7 10 -8 0
BITMAP
0c
0c
0c
18
18
30
30
60
c0
fe
ENDCHAR
STARTCHAR eightb
ENCODING 182
SWIDTH 642 0
DWIDTH -9 0
BBX 7 10 -8 0
BITMAP
7c
c6
c6
c6
c6
7c
c6
c6
c6
7c
ENDCHAR
STARTCHAR nineb
ENCODING 183
SWIDTH 642 0
DWIDTH -9 0
BBX 7 10 -8 0
BITMAP
3c
66
c6
c0
fc
c6
c6
c6
c6
7c
ENDCHAR
STARTCHAR colonb
ENCODING 184
SWIDTH 285 0
DWIDTH -4 0
BBX 2 7 -3 0
BITMAP
c0
c0
00
00
00
c0
c0
ENDCHAR
STARTCHAR semicolonb
ENCODING 185
SWIDTH 285 0
DWIDTH -4 0
BBX 2 10 -3 -3
BITMAP
40
80
80
c0
c0
00
00
00
c0
c0
ENDCHAR
STARTCHAR lessb
ENCODING 186
SWIDTH 571 0
DWIDTH -8 0
BBX 6 10 -7 0
BITMAP
c0
60
30
18
0c
0c
18
30
60
c0
ENDCHAR
STARTCHAR equalb
ENCODING 187
SWIDTH 571 0
DWIDTH -8 0
BBX 5 5 -7 1
BITMAP
f8
f8
00
f8
f8
ENDCHAR
STARTCHAR greaterb
ENCODING 188
SWIDTH 571 0
DWIDTH -8 0
BBX 6 10 -7 0
BITMAP
0c
18
30
60
c0
c0
60
30
18
0c
ENDCHAR
STARTCHAR questionb
ENCODING 189
SWIDTH 571 0
DWIDTH -8 0
BBX 6 10 -7 0
BITMAP
30
30
00
30
30
60
c0
cc
cc
78
ENDCHAR
STARTCHAR atb
ENCODING 190
SWIDTH 1000 0
DWIDTH -14 0
BBX 12 10 -13 0
BITMAP
7fc0
8060
3730
59b0
d9b0
d9b0
d9b0
cf30
6060
3fc0
ENDCHAR
STARTCHAR Ab
ENCODING 191
SWIDTH 642 0
DWIDTH -9 0
BBX 8 10 -8 0
BITMAP
c3
c3
66
7e
66
24
3c
3c
18
18
ENDCHAR
STARTCHAR Bb
ENCODING 192
SWIDTH 571 0
DWIDTH -8 0
BBX 7 10 -7 0
BITMAP
7e
c6
c6
c6
c6
7e
66
66
66
3e
ENDCHAR
STARTCHAR Cb
ENCODING 193
SWIDTH 642 0
DWIDTH -9 0
BBX 8 10 -8 0
BITMAP
7c
c6
c3
c3
03
03
03
c3
c6
7c
ENDCHAR
STARTCHAR Db
ENCODING 194
SWIDTH 642 0
DWIDTH -9 0
BBX 8 10 -8 0
BITMAP
3f
63
c3
c3
c3
c3
c3
c3
63
3f
ENDCHAR
STARTCHAR Eb
ENCODING 195
SWIDTH 571 0
DWIDTH -8 0
BBX 7 10 -7 0
BITMAP
fe
06
06
06
06
7e
06
06
06
fe
ENDCHAR
STARTCHAR Fb
ENCODING 196
SWIDTH 571 0
DWIDTH -8 0
BBX 7 10 -7 0
BITMAP
06
06
06
06
06
7e
06
06
06
fe
ENDCHAR
STARTCHAR Gb
ENCODING 197
SWIDTH 714 0
DWIDTH -10 0
BBX 9 10 -9 0
BITMAP
de00
e300
c180
c180
f180
0180
0180
c180
c300
7e00
ENDCHAR
STARTCHAR Hb
ENCODING 198
SWIDTH 642 0
DWIDTH -9 0
BBX 8 10 -8 0
BITMAP
c3
c3
c3
c3
c3
ff
c3
c3
c3
c3
ENDCHAR
STARTCHAR Ib
ENCODING 199
SWIDTH 214 0
DWIDTH -3 0
BBX 2 10 -2 0
BITMAP
c0
c0
c0
c0
c0
c0
c0
c0
c0
c0
ENDCHAR
STARTCHAR Jb
ENCODING 200
SWIDTH 500 0
DWIDTH -7 0
BBX 6 10 -6 0
BITMAP
78
cc
cc
c0
c0
c0
c0
c0
c0
c0
ENDCHAR
STARTCHAR Kb
ENCODING 201
SWIDTH 642 0
DWIDTH -9 0
BBX 8 10 -8 0
BITMAP
c3
63
33
1b
0f
07
0f
1b
33
63
ENDCHAR
STARTCHAR Lb
ENCODING 202
SWIDTH 500 0
DWIDTH -7 0
BBX 6 10 -6 0
BITMAP
fc
0c
0c
0c
0c
0c
0c
0c
0c
0c
ENDCHAR
STARTCHAR Mb
ENCODING 203
SWIDTH 857 0
DWIDTH -12 0
BBX 11 10 -11 0
BITMAP
c460
ce60
ce60
db60
db60
db60
f1e0
f1e0
e0e0
e0e0
ENDCHAR
STARTCHAR Nb
ENCODING 204
SWIDTH 642 0
DWIDTH -9 0
BBX 8 10 -8 0
BITMAP
e3
f3
f3
db
db
cf
cf
c7
c7
c3
ENDCHAR
STARTCHAR Ob
ENCODING 205
SWIDTH 714 0
DWIDTH -10 0
BBX 9 10 -9 0
BITMAP
3e00
6300
c180
c180
c180
c180
c180
c180
6300
3e00
ENDCHAR
STARTCHAR Pb
ENCODING 206
SWIDTH 571 0
DWIDTH -8 0
BBX 7 10 -7 0
BITMAP
06
06
06
06
7e
c6
c6
c6
c6
7e
ENDCHAR
STARTCHAR Qb
ENCODING 207
SWIDTH 714 0
DWIDTH -10 0
BBX 9 11 -9 -1
BITMAP
c000
7e00
7300
d980
c180
c180
c180
c180
c180
6300
3e00
ENDCHAR
STARTCHAR Rb
ENCODING 208
SWIDTH 642 0
DWIDTH -9 0
BBX 8 10 -8 0
BITMAP
c3
c3
c3
c3
c3
7f
c3
c3
c3
7f
ENDCHAR
STARTCHAR Sb
ENCODING 209
SWIDTH 571 0
DWIDTH -8 0
BBX 7 10 -7 0
BITMAP
7c
c6
c6
c6
f0
7c
1e
c6
c6
7c
ENDCHAR
STARTCHAR Tb
ENCODING 210
SWIDTH 642 0
DWIDTH -9 0
BBX 8 10 -8 0
BITMAP
18
18
18
18
18
18
18
18
18
ff
ENDCHAR
STARTCHAR Ub
ENCODING 211
SWIDTH 642 0
DWIDTH -9 0
BBX 8 10 -8 0
BITMAP
3c
66
c3
c3
c3
c3
c3
c3
c3
c3
ENDCHAR
STARTCHAR Vb
ENCODING 212
SWIDTH 642 0
DWIDTH -9 0
BBX 8 10 -8 0
BITMAP
18
18
3c
24
66
66
66
c3
c3
c3
ENDCHAR
STARTCHAR Wb
ENCODING 213
SWIDTH 1000 0
DWIDTH -14 0
BBX 13 10 -13 0
BITMAP
18c0
18c0
38e0
3de0
2fa0
6730
6730
6730
c218
c218
ENDCHAR
STARTCHAR Xb
ENCODING 214
SWIDTH 642 0
DWIDTH -9 0
BBX 8 10 -8 0
BITMAP
c3
c3
66
3c
18
18
3c
66
c3
c3
ENDCHAR
STARTCHAR Yb
ENCODING 215
SWIDTH 642 0
DWIDTH -9 0
BBX 8 10 -8 0
BITMAP
18
18
18
18
18
3c
66
66
c3
c3
ENDCHAR
STARTCHAR Zb
ENCODING 216
SWIDTH 642 0
DWIDTH -9 0
BBX 8 10 -8 0
BITMAP
ff
03
06
0c
18
18
30
60
c0
ff
ENDCHAR
STARTCHAR braketleftb
ENCODING 217
SWIDTH 500 0
DWIDTH -7 0
BBX 5 13 -6 -3
BITMAP
f8
18
18
18
18
18
18
18
18
18
18
18
f8
ENDCHAR
STARTCHAR backslashb
ENCODING 218
SWIDTH 571 0
DWIDTH -8 0
BBX 6 10 -7 0
BITMAP
c0
c0
60
60
30
30
18
18
0c
0c
ENDCHAR
STARTCHAR bracketrightb
ENCODING 219
SWIDTH 500 0
DWIDTH -7 0
BBX 5 13 -6 -3
BITMAP
f8
c0
c0
c0
c0
c0
c0
c0
c0
c0
c0
c0
f8
ENDCHAR
STARTCHAR asciicircumb
ENCODING 220
SWIDTH 571 0
DWIDTH -8 0
BBX 6 8 -7 1
BITMAP
30
30
30
30
b4
fc
78
30
ENDCHAR
STARTCHAR underscoreb
ENCODING 221
SWIDTH 714 0
DWIDTH -10 0
BBX 8 6 -9 2
BITMAP
0c
06
ff
ff
06
0c
ENDCHAR
STARTCHAR quoteleftb
ENCODING 222
SWIDTH 285 0
DWIDTH -4 0
BBX 3 5 -3 5
BITMAP
e0
e0
60
60
c0
ENDCHAR
STARTCHAR ab
ENCODING 223
SWIDTH 571 0
DWIDTH -8 0
BBX 7 7 -7 0
BITMAP
dc
66
66
7c
60
66
3c
ENDCHAR
STARTCHAR bb
ENCODING 224
SWIDTH 571 0
DWIDTH -8 0
BBX 7 10 -7 0
BITMAP
7e
c6
c6
c6
c6
c6
7e
06
06
06
ENDCHAR
STARTCHAR cb
ENCODING 225
SWIDTH 571 0
DWIDTH -8 0
BBX 7 7 -7 0
BITMAP
7c
c6
c6
06
06
c6
7c
ENDCHAR
STARTCHAR db
ENCODING 226
SWIDTH 571 0
DWIDTH -8 0
BBX 7 10 -7 0
BITMAP
fc
c6
c6
c6
c6
c6
fc
c0
c0
c0
ENDCHAR
STARTCHAR eb
ENCODING 227
SWIDTH 571 0
DWIDTH -8 0
BBX 7 7 -7 0
BITMAP
7c
c6
06
fe
c6
c6
7c
ENDCHAR
STARTCHAR fb
ENCODING 228
SWIDTH 428 0
DWIDTH -6 0
BBX 5 10 -5 0
BITMAP
30
30
30
30
30
30
f8
30
30
e0
ENDCHAR
STARTCHAR gb
ENCODING 229
SWIDTH 571 0
DWIDTH -8 0
BBX 7 10 -7 -3
BITMAP
7c
c6
c0
fc
c6
c6
c6
c6
c6
fc
ENDCHAR
STARTCHAR hb
ENCODING 230
SWIDTH 571 0
DWIDTH -8 0
BBX 7 10 -7 0
BITMAP
c6
c6
c6
c6
c6
c6
7e
06
06
06
ENDCHAR
STARTCHAR ib
ENCODING 231
SWIDTH 214 0
DWIDTH -3 0
BBX 2 10 -2 0
BITMAP
c0
c0
c0
c0
c0
c0
c0
00
c0
c0
ENDCHAR
STARTCHAR jb
ENCODING 232
SWIDTH 357 0
DWIDTH -5 0
BBX 4 12 -4 -2
BITMAP
70
c0
c0
c0
c0
c0
c0
c0
c0
00
c0
c0
ENDCHAR
STARTCHAR kb
ENCODING 233
SWIDTH 571 0
DWIDTH -8 0
BBX 7 10 -7 0
BITMAP
c6
66
36
1e
1e
36
66
06
06
06
ENDCHAR
STARTCHAR lb
ENCODING 234
SWIDTH 214 0
DWIDTH -3 0
BBX 2 10 -2 0
BITMAP
c0
c0
c0
c0
c0
c0
c0
c0
c0
c0
ENDCHAR
STARTCHAR mb
ENCODING 235
SWIDTH 785 0
DWIDTH -11 0
BBX 10 7 -10 0
BITMAP
ccc0
ccc0
ccc0
ccc0
ccc0
ccc0
77c0
ENDCHAR
STARTCHAR nb
ENCODING 236
SWIDTH 571 0
DWIDTH -8 0
BBX 7 7 -7 0
BITMAP
c6
c6
c6
c6
c6
c6
7e
ENDCHAR
STARTCHAR ob
ENCODING 237
SWIDTH 571 0
DWIDTH -8 0
BBX 7 7 -7 0
BITMAP
7c
c6
c6
c6
c6
c6
7c
ENDCHAR
STARTCHAR pb
ENCODING 238
SWIDTH 571 0
DWIDTH -8 0
BBX 7 10 -7 -3
BITMAP
06
06
06
7e
c6
c6
c6
c6
c6
7e
ENDCHAR
STARTCHAR qb
ENCODING 239
SWIDTH 571 0
DWIDTH -8 0
BBX 7 10 -7 -3
BITMAP
c0
c0
c0
fc
c6
c6
c6
c6
c6
fc
ENDCHAR
STARTCHAR rb
ENCODING 240
SWIDTH 428 0
DWIDTH -6 0
BBX 5 7 -5 0
BITMAP
18
18
18
18
18
d8
f8
ENDCHAR
STARTCHAR sb
ENCODING 241
SWIDTH 500 0
DWIDTH -7 0
BBX 6 7 -6 0
BITMAP
78
cc
e0
78
1c
cc
78
ENDCHAR
STARTCHAR tb
ENCODING 242
SWIDTH 428 0
DWIDTH -6 0
BBX 5 9 -5 0
BITMAP
e0
30
30
30
30
30
f8
30
30
ENDCHAR
STARTCHAR ub
ENCODING 243
SWIDTH 571 0
DWIDTH -8 0
BBX 7 7 -7 0
BITMAP
fc
c6
c6
c6
c6
c6
c6
ENDCHAR
STARTCHAR vb
ENCODING 244
SWIDTH 642 0
DWIDTH -9 0
BBX 8 7 -8 0
BITMAP
18
3c
24
66
66
c3
c3
ENDCHAR
STARTCHAR wb
ENCODING 245
SWIDTH 857 0
DWIDTH -12 0
BBX 11 7 -11 0
BITMAP
3180
3180
7bc0
6ec0
6ec0
c460
c460
ENDCHAR
STARTCHAR xb
ENCODING 246
SWIDTH 500 0
DWIDTH -7 0
BBX 6 7 -6 0
BITMAP
cc
cc
78
30
78
cc
cc
ENDCHAR
STARTCHAR yb
ENCODING 247
SWIDTH 571 0
DWIDTH -8 0
BBX 7 10 -7 -3
BITMAP
1c
36
30
30
78
68
6c
cc
c6
c6
ENDCHAR
STARTCHAR zb
ENCODING 248
SWIDTH 500 0
DWIDTH -7 0
BBX 6 7 -6 0
BITMAP
fc
0c
18
30
60
c0
fc
ENDCHAR
STARTCHAR braceleftb
ENCODING 249
SWIDTH 571 0
DWIDTH -8 0
BBX 6 13 -7 -3
BITMAP
e0
30
30
30
30
30
1c
30
30
30
30
30
e0
ENDCHAR
STARTCHAR barb
ENCODING 250
SWIDTH 357 0
DWIDTH -5 0
BBX 2 13 -4 -3
BITMAP
c0
c0
c0
c0
c0
c0
c0
c0
c0
c0
c0
c0
c0
ENDCHAR
STARTCHAR bracerightb
ENCODING 251
SWIDTH 571 0
DWIDTH -8 0
BBX 6 13 -7 -3
BITMAP
1c
30
30
30
30
30
e0
30
30
30
30
30
1c
ENDCHAR
STARTCHAR tildab
ENCODING 252
SWIDTH 714 0
DWIDTH -10 0
BBX 8 3 -9 3
BITMAP
33
7e
cc
ENDCHAR
STARTCHAR ascii001c
ENCODING 253
SWIDTH 571 0
DWIDTH -8 0
BBX 7 3 -8 8
BITMAP
c6
6c
38
ENDCHAR
STARTCHAR ascii002c
ENCODING 254
SWIDTH 571 0
DWIDTH -8 0
BBX 6 10 -7 0
BITMAP
30
30
00
30
30
60
c0
cc
cc
78
ENDCHAR
STARTCHAR ascii003c
ENCODING 255
SWIDTH 571 0
DWIDTH -8 0
BBX 7 10 -7 -3
BITMAP
7c
c6
c0
c0
c6
c6
7c
00
18
30
ENDCHAR
STARTCHAR ascii004c
ENCODING 256
SWIDTH 500 0
DWIDTH -7 0
BBX 6 2 -7 8
BITMAP
cc
cc
ENDCHAR
STARTCHAR ascii005c
ENCODING 257
SWIDTH 500 0
DWIDTH -7 0
BBX 4 3 -7 8
BITMAP
c0
60
30
ENDCHAR
STARTCHAR ascii006c
ENCODING 258
SWIDTH 714 0
DWIDTH -10 0
BBX 10 10 -10 0
BITMAP
39c0
6300
6300
ffc0
6300
6300
6300
6300
6300
6300
ENDCHAR
STARTCHAR ascii007c
ENCODING 259
SWIDTH 285 0
DWIDTH -4 0
BBX 3 5 -3 5
BITMAP
60
c0
c0
e0
e0
ENDCHAR
STARTCHAR ascii0010c
ENCODING 260
SWIDTH 357 0
DWIDTH -5 0
BBX 2 10 -3 0
BITMAP
c0
c0
00
c0
c0
c0
c0
c0
c0
c0
ENDCHAR
STARTCHAR ascii011c
ENCODING 261
SWIDTH 0 0
DWIDTH 0 0
COMMENT BBX 1 0 0 10 RSB <= CHAR_WIDTH to be a good font
BBX 0 0 0 10
BITMAP
ENDCHAR
STARTCHAR ascii012c
ENCODING 262
SWIDTH 0 0
DWIDTH 0 0
COMMENT BBX 1 0 0 10 RSB <= CHAR_WIDTH to be a good font
BBX 0 0 0 10
BITMAP
ENDCHAR
STARTCHAR ascii013c
ENCODING 263
SWIDTH 428 0
DWIDTH -6 0
BBX 4 3 -6 8
BITMAP
30
60
c0
ENDCHAR
STARTCHAR ascii014c
ENCODING 264
SWIDTH 0 0
DWIDTH 0 0
COMMENT BBX 1 0 0 10 RSB <= CHAR_WIDTH to be a good font
BBX 0 0 0 10
BITMAP
ENDCHAR
STARTCHAR ascii015c
ENCODING 265
SWIDTH 0 0
DWIDTH 0 0
COMMENT BBX 1 0 0 10 RSB <= CHAR_WIDTH to be a good font
BBX 0 0 0 10
BITMAP
ENDCHAR
STARTCHAR ascii016c
ENCODING 266
SWIDTH 500 0
DWIDTH -7 0
BBX 5 2 -7 8
BITMAP
f8
f8
ENDCHAR
STARTCHAR ascii017c
ENCODING 267
SWIDTH 1142 0
DWIDTH -16 0
BBX 0 0 -16 10
BITMAP
ENDCHAR
STARTCHAR ascii020c
ENCODING 268
SWIDTH 571 0
DWIDTH -8 0
BBX 7 2 -8 8
BITMAP
76
dc
ENDCHAR
STARTCHAR ascii021c
ENCODING 269
SWIDTH 1000 0
DWIDTH -14 0
BBX 13 10 -13 0
BITMAP
39d8
6318
6300
ffd8
6318
6318
6318
6318
6318
6318
ENDCHAR
STARTCHAR ascii022c
ENCODING 270
SWIDTH 1000 0
DWIDTH -14 0
BBX 13 10 -13 0
BITMAP
39d8
6318
6318
ffd8
6318
6318
6318
6318
6318
6318
ENDCHAR
STARTCHAR ascii023c
ENCODING 271
SWIDTH 1142 0
DWIDTH -16 0
BBX 16 2 -16 3
BITMAP
ffff
ffff
ENDCHAR
STARTCHAR ascii024c
ENCODING 272
SWIDTH 642 0
DWIDTH -9 0
BBX 8 10 -8 0
BITMAP
3b
63
60
fb
63
63
63
63
63
63
ENDCHAR
STARTCHAR ascii025c
ENCODING 273
SWIDTH 642 0
DWIDTH -9 0
BBX 8 10 -8 0
BITMAP
3b
63
63
fb
63
63
63
63
63
63
ENDCHAR
STARTCHAR ascii026c
ENCODING 274
SWIDTH 571 0
DWIDTH -8 0
BBX 8 2 -8 3
BITMAP
ff
ff
ENDCHAR
STARTCHAR ascii027c
ENCODING 275
SWIDTH 500 0
DWIDTH -7 0
BBX 6 3 -7 8
BITMAP
84
fc
78
ENDCHAR
STARTCHAR ascii030c
ENCODING 276
SWIDTH 1142 0
DWIDTH -16 0
BBX 8 2 -12 3
BITMAP
ff
ff
ENDCHAR
STARTCHAR ascii031c
ENCODING 277
SWIDTH 642 0
DWIDTH -9 0
BBX 0 0 -9 10
BITMAP
ENDCHAR
STARTCHAR ascii032c
ENCODING 278
SWIDTH 0 0
DWIDTH 0 0
COMMENT BBX 1 0 0 10 RSB <= CHAR_WIDTH to be a good font
BBX 0 0 0 10
BITMAP
ENDCHAR
STARTCHAR ascii033c
ENCODING 279
SWIDTH 0 0
DWIDTH 0 0
COMMENT BBX 1 0 0 10 RSB <= CHAR_WIDTH to be a good font
BBX 0 0 0 10
BITMAP
ENDCHAR
STARTCHAR ascii034c
ENCODING 280
SWIDTH 571 0
DWIDTH -8 0
BBX 0 0 -8 10
BITMAP
ENDCHAR
STARTCHAR ascii035c
ENCODING 281
SWIDTH 428 0
DWIDTH -6 0
BBX 2 2 -6 -3
BITMAP
c0
c0
ENDCHAR
STARTCHAR ascii036c
ENCODING 282
SWIDTH 571 0
DWIDTH -8 0
BBX 7 2 -8 8
BITMAP
76
dc
ENDCHAR
STARTCHAR ascii037c
ENCODING 283
SWIDTH 500 0
DWIDTH -7 0
BBX 5 4 -7 7
BITMAP
70
d8
d8
70
ENDCHAR
STARTCHAR spacec
ENCODING 284
SWIDTH 500 0
DWIDTH -7 0
BBX 0 0 -7 10
BITMAP
ENDCHAR
STARTCHAR exclamc
ENCODING 285
SWIDTH 285 0
DWIDTH -4 0
BBX 2 10 -3 0
BITMAP
c0
c0
c0
c0
c0
c0
c0
00
c0
c0
ENDCHAR
STARTCHAR quotedblc
ENCODING 286
SWIDTH 500 0
DWIDTH -7 0
BBX 5 4 -6 6
BITMAP
d8
d8
d8
d8
ENDCHAR
STARTCHAR numbersignc
ENCODING 287
SWIDTH 857 0
DWIDTH -12 0
BBX 10 10 -11 0
BITMAP
0cc0
0cc0
1980
7fc0
3300
3300
ff80
6600
cc00
cc00
ENDCHAR
STARTCHAR dollarc
ENCODING 288
SWIDTH 642 0
DWIDTH -9 0
BBX 7 12 -8 -1
BITMAP
10
7c
d6
d6
d0
f8
3c
16
d6
d6
7c
10
ENDCHAR
STARTCHAR percentc
ENCODING 289
SWIDTH 1000 0
DWIDTH -14 0
BBX 12 10 -13 0
BITMAP
7180
d980
db00
7300
0600
0600
0ce0
0db0
19b0
18e0
ENDCHAR
STARTCHAR ampersandc
ENCODING 290
SWIDTH 785 0
DWIDTH -11 0
BBX 9 10 -10 0
BITMAP
3800
6c00
6c00
2800
3800
7d80
c700
c600
cf00
7b80
ENDCHAR
STARTCHAR quoterightc
ENCODING 291
SWIDTH 285 0
DWIDTH -4 0
BBX 3 5 -3 5
BITMAP
e0
e0
60
60
c0
ENDCHAR
STARTCHAR parenleftc
ENCODING 292
SWIDTH 428 0
DWIDTH -6 0
BBX 4 12 -5 -2
BITMAP
30
60
60
c0
c0
c0
c0
c0
c0
60
60
30
ENDCHAR
STARTCHAR parenrightc
ENCODING 293
SWIDTH 428 0
DWIDTH -6 0
BBX 4 12 -5 -2
BITMAP
c0
60
60
30
30
30
30
30
30
60
60
c0
ENDCHAR
STARTCHAR asteriskc
ENCODING 294
SWIDTH 500 0
DWIDTH -7 0
BBX 5 6 -6 5
BITMAP
20
a8
70
70
a8
20
ENDCHAR
STARTCHAR plusc
ENCODING 295
SWIDTH 714 0
DWIDTH -10 0
BBX 8 8 -9 0
BITMAP
18
18
18
ff
ff
18
18
18
ENDCHAR
STARTCHAR commac
ENCODING 296
SWIDTH 285 0
DWIDTH -4 0
BBX 2 5 -3 -3
BITMAP
c0
c0
40
40
80
ENDCHAR
STARTCHAR hyphenc
ENCODING 297
SWIDTH 642 0
DWIDTH -9 0
BBX 6 2 -8 3
BITMAP
fc
fc
ENDCHAR
STARTCHAR periodc
ENCODING 298
SWIDTH 285 0
DWIDTH -4 0
BBX 2 2 -3 0
BITMAP
c0
c0
ENDCHAR
STARTCHAR slashc
ENCODING 299
SWIDTH 571 0
DWIDTH -8 0
BBX 6 10 -7 0
BITMAP
0c
0c
18
18
30
30
60
60
c0
c0
ENDCHAR
STARTCHAR zeroc
ENCODING 300
SWIDTH 642 0
DWIDTH -9 0
BBX 7 10 -8 0
BITMAP
38
6c
c6
c6
c6
c6
c6
c6
6c
38
ENDCHAR
STARTCHAR onec
ENCODING 301
SWIDTH 642 0
DWIDTH -9 0
BBX 5 10 -7 0
BITMAP
18
38
f8
18
18
18
18
18
18
18
ENDCHAR
STARTCHAR twoc
ENCODING 302
SWIDTH 642 0
DWIDTH -9 0
BBX 7 10 -8 0
BITMAP
7c
c6
c6
06
0c
18
30
60
c0
fe
ENDCHAR
STARTCHAR threec
ENCODING 303
SWIDTH 642 0
DWIDTH -9 0
BBX 7 10 -8 0
BITMAP
7c
c6
c6
06
1c
06
06
c6
c6
7c
ENDCHAR
STARTCHAR fourc
ENCODING 304
SWIDTH 642 0
DWIDTH -9 0
BBX 7 10 -8 0
BITMAP
0c
1c
3c
2c
6c
cc
cc
fe
0c
0c
ENDCHAR
STARTCHAR fivec
ENCODING 305
SWIDTH 642 0
DWIDTH -9 0
BBX 7 10 -8 0
BITMAP
7e
60
60
fc
c6
c6
06
c6
c6
7c
ENDCHAR
STARTCHAR sixc
ENCODING 306
SWIDTH 642 0
DWIDTH -9 0
BBX 7 10 -8 0
BITMAP
3c
66
c6
c0
fc
c6
c6
c6
c6
7c
ENDCHAR
STARTCHAR sevenc
ENCODING 307
SWIDTH 642 0
DWIDTH -9 0
BBX 7 10 -8 0
BITMAP
fe
06
0c
18
18
30
30
60
60
60
ENDCHAR
STARTCHAR eightc
ENCODING 308
SWIDTH 642 0
DWIDTH -9 0
BBX 7 10 -8 0
BITMAP
7c
c6
c6
c6
7c
c6
c6
c6
c6
7c
ENDCHAR
STARTCHAR ninec
ENCODING 309
SWIDTH 642 0
DWIDTH -9 0
BBX 7 10 -8 0
BITMAP
7c
c6
c6
c6
c6
7e
06
c6
cc
78
ENDCHAR
STARTCHAR colonc
ENCODING 310
SWIDTH 285 0
DWIDTH -4 0
BBX 2 7 -3 0
BITMAP
c0
c0
00
00
00
c0
c0
ENDCHAR
STARTCHAR semicolonc
ENCODING 311
SWIDTH 285 0
DWIDTH -4 0
BBX 2 10 -3 -3
BITMAP
c0
c0
00
00
00
c0
c0
40
40
80
ENDCHAR
STARTCHAR lessc
ENCODING 312
SWIDTH 571 0
DWIDTH -8 0
BBX 6 10 -7 0
BITMAP
0c
18
30
60
c0
c0
60
30
18
0c
ENDCHAR
STARTCHAR equalc
ENCODING 313
SWIDTH 571 0
DWIDTH -8 0
BBX 5 5 -7 1
BITMAP
f8
f8
00
f8
f8
ENDCHAR
STARTCHAR greaterc
ENCODING 314
SWIDTH 571 0
DWIDTH -8 0
BBX 6 10 -7 0
BITMAP
c0
60
30
18
0c
0c
18
30
60
c0
ENDCHAR
STARTCHAR questionc
ENCODING 315
SWIDTH 571 0
DWIDTH -8 0
BBX 6 10 -7 0
BITMAP
78
cc
cc
0c
18
30
30
00
30
30
ENDCHAR
STARTCHAR atc
ENCODING 316
SWIDTH 1000 0
DWIDTH -14 0
BBX 12 10 -13 0
BITMAP
3fc0
6060
cf30
d9b0
d9b0
d9b0
d9a0
cec0
6010
3fe0
ENDCHAR
STARTCHAR Ac
ENCODING 317
SWIDTH 642 0
DWIDTH -9 0
BBX 8 10 -8 0
BITMAP
18
18
3c
3c
24
66
7e
66
c3
c3
ENDCHAR
STARTCHAR Bc
ENCODING 318
SWIDTH 571 0
DWIDTH -8 0
BBX 7 10 -7 0
BITMAP
f8
cc
cc
cc
fc
c6
c6
c6
c6
fc
ENDCHAR
STARTCHAR Cc
ENCODING 319
SWIDTH 642 0
DWIDTH -9 0
BBX 8 10 -8 0
BITMAP
3e
63
c3
c0
c0
c0
c3
c3
63
3e
ENDCHAR
STARTCHAR Dc
ENCODING 320
SWIDTH 642 0
DWIDTH -9 0
BBX 8 10 -8 0
BITMAP
fc
c6
c3
c3
c3
c3
c3
c3
c6
fc
ENDCHAR
STARTCHAR Ec
ENCODING 321
SWIDTH 571 0
DWIDTH -8 0
BBX 7 10 -7 0
BITMAP
fe
c0
c0
c0
fc
c0
c0
c0
c0
fe
ENDCHAR
STARTCHAR Fc
ENCODING 322
SWIDTH 571 0
DWIDTH -8 0
BBX 7 10 -7 0
BITMAP
fe
c0
c0
c0
fc
c0
c0
c0
c0
c0
ENDCHAR
STARTCHAR Gc
ENCODING 323
SWIDTH 714 0
DWIDTH -10 0
BBX 9 10 -9 0
BITMAP
3f00
6180
c180
c000
c000
c780
c180
c180
6380
3d80
ENDCHAR
STARTCHAR Hc
ENCODING 324
SWIDTH 642 0
DWIDTH -9 0
BBX 8 10 -8 0
BITMAP
c3
c3
c3
c3
ff
c3
c3
c3
c3
c3
ENDCHAR
STARTCHAR Ic
ENCODING 325
SWIDTH 214 0
DWIDTH -3 0
BBX 2 10 -2 0
BITMAP
c0
c0
c0
c0
c0
c0
c0
c0
c0
c0
ENDCHAR
STARTCHAR Jc
ENCODING 326
SWIDTH 500 0
DWIDTH -7 0
BBX 6 10 -6 0
BITMAP
0c
0c
0c
0c
0c
0c
0c
cc
cc
78
ENDCHAR
STARTCHAR Kc
ENCODING 327
SWIDTH 642 0
DWIDTH -9 0
BBX 8 10 -8 0
BITMAP
c6
cc
d8
f0
e0
f0
d8
cc
c6
c3
ENDCHAR
STARTCHAR Lc
ENCODING 328
SWIDTH 500 0
DWIDTH -7 0
BBX 6 10 -6 0
BITMAP
c0
c0
c0
c0
c0
c0
c0
c0
c0
fc
ENDCHAR
STARTCHAR Mc
ENCODING 329
SWIDTH 857 0
DWIDTH -12 0
BBX 11 10 -11 0
BITMAP
e0e0
e0e0
f1e0
f1e0
db60
db60
db60
ce60
ce60
c460
ENDCHAR
STARTCHAR Nc
ENCODING 330
SWIDTH 642 0
DWIDTH -9 0
BBX 8 10 -8 0
BITMAP
c3
e3
e3
f3
f3
db
db
cf
cf
c7
ENDCHAR
STARTCHAR Oc
ENCODING 331
SWIDTH 714 0
DWIDTH -10 0
BBX 9 10 -9 0
BITMAP
3e00
6300
c180
c180
c180
c180
c180
c180
6300
3e00
ENDCHAR
STARTCHAR Pc
ENCODING 332
SWIDTH 571 0
DWIDTH -8 0
BBX 7 10 -7 0
BITMAP
fc
c6
c6
c6
c6
fc
c0
c0
c0
c0
ENDCHAR
STARTCHAR Qc
ENCODING 333
SWIDTH 714 0
DWIDTH -10 0
BBX 9 11 -9 -1
BITMAP
3e00
6300
c180
c180
c180
c180
c180
cd80
6700
3f00
0180
ENDCHAR
STARTCHAR Rc
ENCODING 334
SWIDTH 642 0
DWIDTH -9 0
BBX 8 10 -8 0
BITMAP
fe
c3
c3
c3
fe
c3
c3
c3
c3
c3
ENDCHAR
STARTCHAR Sc
ENCODING 335
SWIDTH 571 0
DWIDTH -8 0
BBX 7 10 -7 0
BITMAP
7c
c6
c6
f0
7c
1e
c6
c6
c6
7c
ENDCHAR
STARTCHAR Tc
ENCODING 336
SWIDTH 642 0
DWIDTH -9 0
BBX 8 10 -8 0
BITMAP
ff
18
18
18
18
18
18
18
18
18
ENDCHAR
STARTCHAR Uc
ENCODING 337
SWIDTH 642 0
DWIDTH -9 0
BBX 8 10 -8 0
BITMAP
c3
c3
c3
c3
c3
c3
c3
c3
66
3c
ENDCHAR
STARTCHAR Vc
ENCODING 338
SWIDTH 642 0
DWIDTH -9 0
BBX 8 10 -8 0
BITMAP
c3
c3
c3
66
66
66
24
3c
18
18
ENDCHAR
STARTCHAR Wc
ENCODING 339
SWIDTH 1000 0
DWIDTH -14 0
BBX 13 10 -13 0
BITMAP
c218
c218
6730
6730
6730
2fa0
3de0
38e0
18c0
18c0
ENDCHAR
STARTCHAR Xc
ENCODING 340
SWIDTH 642 0
DWIDTH -9 0
BBX 8 10 -8 0
BITMAP
c3
c3
66
3c
18
18
3c
66
c3
c3
ENDCHAR
STARTCHAR Yc
ENCODING 341
SWIDTH 642 0
DWIDTH -9 0
BBX 8 10 -8 0
BITMAP
c3
c3
66
66
3c
18
18
18
18
18
ENDCHAR
STARTCHAR Zc
ENCODING 342
SWIDTH 642 0
DWIDTH -9 0
BBX 8 10 -8 0
BITMAP
ff
03
06
0c
18
18
30
60
c0
ff
ENDCHAR
STARTCHAR braketleftc
ENCODING 343
SWIDTH 500 0
DWIDTH -7 0
BBX 5 13 -6 -3
BITMAP
f8
c0
c0
c0
c0
c0
c0
c0
c0
c0
c0
c0
f8
ENDCHAR
STARTCHAR backslashc
ENCODING 344
SWIDTH 571 0
DWIDTH -8 0
BBX 6 10 -7 0
BITMAP
c0
c0
60
60
30
30
18
18
0c
0c
ENDCHAR
STARTCHAR bracketrightc
ENCODING 345
SWIDTH 500 0
DWIDTH -7 0
BBX 5 13 -6 -3
BITMAP
f8
18
18
18
18
18
18
18
18
18
18
18
f8
ENDCHAR
STARTCHAR asciicircumc
ENCODING 346
SWIDTH 571 0
DWIDTH -8 0
BBX 6 8 -7 1
BITMAP
30
78
fc
b4
30
30
30
30
ENDCHAR
STARTCHAR underscorec
ENCODING 347
SWIDTH 714 0
DWIDTH -10 0
BBX 8 6 -9 2
BITMAP
30
60
ff
ff
60
30
ENDCHAR
STARTCHAR quoteleftc
ENCODING 348
SWIDTH 285 0
DWIDTH -4 0
BBX 3 5 -3 5
BITMAP
60
c0
c0
e0
e0
ENDCHAR
STARTCHAR ac
ENCODING 349
SWIDTH 571 0
DWIDTH -8 0
BBX 7 7 -7 0
BITMAP
78
cc
0c
7c
cc
cc
76
ENDCHAR
STARTCHAR bc
ENCODING 350
SWIDTH 571 0
DWIDTH -8 0
BBX 7 10 -7 0
BITMAP
c0
c0
c0
fc
c6
c6
c6
c6
c6
fc
ENDCHAR
STARTCHAR cc
ENCODING 351
SWIDTH 571 0
DWIDTH -8 0
BBX 7 7 -7 0
BITMAP
7c
c6
c0
c0
c6
c6
7c
ENDCHAR
STARTCHAR dc
ENCODING 352
SWIDTH 571 0
DWIDTH -8 0
BBX 7 10 -7 0
BITMAP
06
06
06
7e
c6
c6
c6
c6
c6
7e
ENDCHAR
STARTCHAR ec
ENCODING 353
SWIDTH 571 0
DWIDTH -8 0
BBX 7 7 -7 0
BITMAP
7c
c6
c6
fe
c0
c6
7c
ENDCHAR
STARTCHAR fc
ENCODING 354
SWIDTH 428 0
DWIDTH -6 0
BBX 5 10 -5 0
BITMAP
38
60
60
f8
60
60
60
60
60
60
ENDCHAR
STARTCHAR gc
ENCODING 355
SWIDTH 571 0
DWIDTH -8 0
BBX 7 10 -7 -3
BITMAP
7e
c6
c6
c6
c6
c6
7e
06
c6
7c
ENDCHAR
STARTCHAR hc
ENCODING 356
SWIDTH 571 0
DWIDTH -8 0
BBX 7 10 -7 0
BITMAP
c0
c0
c0
fc
c6
c6
c6
c6
c6
c6
ENDCHAR
STARTCHAR ic
ENCODING 357
SWIDTH 214 0
DWIDTH -3 0
BBX 2 10 -2 0
BITMAP
c0
c0
00
c0
c0
c0
c0
c0
c0
c0
ENDCHAR
STARTCHAR jc
ENCODING 358
SWIDTH 357 0
DWIDTH -5 0
BBX 4 12 -4 -2
BITMAP
30
30
00
30
30
30
30
30
30
30
30
e0
ENDCHAR
STARTCHAR kc
ENCODING 359
SWIDTH 571 0
DWIDTH -8 0
BBX 7 10 -7 0
BITMAP
c0
c0
c0
cc
d8
f0
f0
d8
cc
c6
ENDCHAR
STARTCHAR lc
ENCODING 360
SWIDTH 214 0
DWIDTH -3 0
BBX 2 10 -2 0
BITMAP
c0
c0
c0
c0
c0
c0
c0
c0
c0
c0
ENDCHAR
STARTCHAR mc
ENCODING 361
SWIDTH 785 0
DWIDTH -11 0
BBX 10 7 -10 0
BITMAP
fb80
ccc0
ccc0
ccc0
ccc0
ccc0
ccc0
ENDCHAR
STARTCHAR nc
ENCODING 362
SWIDTH 571 0
DWIDTH -8 0
BBX 7 7 -7 0
BITMAP
fc
c6
c6
c6
c6
c6
c6
ENDCHAR
STARTCHAR oc
ENCODING 363
SWIDTH 571 0
DWIDTH -8 0
BBX 7 7 -7 0
BITMAP
7c
c6
c6
c6
c6
c6
7c
ENDCHAR
STARTCHAR pc
ENCODING 364
SWIDTH 571 0
DWIDTH -8 0
BBX 7 10 -7 -3
BITMAP
fc
c6
c6
c6
c6
c6
fc
c0
c0
c0
ENDCHAR
STARTCHAR qc
ENCODING 365
SWIDTH 571 0
DWIDTH -8 0
BBX 7 10 -7 -3
BITMAP
7e
c6
c6
c6
c6
c6
7e
06
06
06
ENDCHAR
STARTCHAR rc
ENCODING 366
SWIDTH 428 0
DWIDTH -6 0
BBX 5 7 -5 0
BITMAP
f8
d8
c0
c0
c0
c0
c0
ENDCHAR
STARTCHAR sc
ENCODING 367
SWIDTH 500 0
DWIDTH -7 0
BBX 6 7 -6 0
BITMAP
78
cc
e0
78
1c
cc
78
ENDCHAR
STARTCHAR tc
ENCODING 368
SWIDTH 428 0
DWIDTH -6 0
BBX 5 9 -5 0
BITMAP
60
60
f8
60
60
60
60
60
38
ENDCHAR
STARTCHAR uc
ENCODING 369
SWIDTH 571 0
DWIDTH -8 0
BBX 7 7 -7 0
BITMAP
c6
c6
c6
c6
c6
c6
7e
ENDCHAR
STARTCHAR vc
ENCODING 370
SWIDTH 642 0
DWIDTH -9 0
BBX 8 7 -8 0
BITMAP
c3
c3
66
66
24
3c
18
ENDCHAR
STARTCHAR wc
ENCODING 371
SWIDTH 857 0
DWIDTH -12 0
BBX 11 7 -11 0
BITMAP
c460
c460
6ec0
6ec0
7bc0
3180
3180
ENDCHAR
STARTCHAR xc
ENCODING 372
SWIDTH 500 0
DWIDTH -7 0
BBX 6 7 -6 0
BITMAP
cc
cc
78
30
78
cc
cc
ENDCHAR
STARTCHAR yc
ENCODING 373
SWIDTH 571 0
DWIDTH -8 0
BBX 7 10 -7 -3
BITMAP
c6
c6
66
6c
2c
3c
18
18
d8
70
ENDCHAR
STARTCHAR zc
ENCODING 374
SWIDTH 500 0
DWIDTH -7 0
BBX 6 7 -6 0
BITMAP
fc
0c
18
30
60
c0
fc
ENDCHAR
STARTCHAR braceleftc
ENCODING 375
SWIDTH 571 0
DWIDTH -8 0
BBX 6 13 -7 -3
BITMAP
1c
30
30
30
30
30
e0
30
30
30
30
30
1c
ENDCHAR
STARTCHAR barc
ENCODING 376
SWIDTH 357 0
DWIDTH -5 0
BBX 2 13 -4 -3
BITMAP
c0
c0
c0
c0
c0
c0
c0
c0
c0
c0
c0
c0
c0
ENDCHAR
STARTCHAR bracerightc
ENCODING 377
SWIDTH 571 0
DWIDTH -8 0
BBX 6 13 -7 -3
BITMAP
e0
30
30
30
30
30
1c
30
30
30
30
30
e0
ENDCHAR
STARTCHAR tildac
ENCODING 378
SWIDTH 714 0
DWIDTH -10 0
BBX 8 3 -9 3
BITMAP
33
7e
cc
ENDCHAR
STARTCHAR ascii001d
ENCODING 379
SWIDTH 571 0
DWIDTH -8 0
BBX 7 3 -8 8
BITMAP
38
6c
c6
ENDCHAR
STARTCHAR ascii002d
ENCODING 380
SWIDTH 571 0
DWIDTH -8 0
BBX 6 10 -7 0
BITMAP
78
cc
cc
c0
60
30
30
00
30
30
ENDCHAR
STARTCHAR ascii003d
ENCODING 381
SWIDTH 571 0
DWIDTH -8 0
BBX 7 10 -7 -3
BITMAP
30
18
00
7c
c6
c6
c0
c0
c6
7c
ENDCHAR
STARTCHAR ascii004d
ENCODING 382
SWIDTH 500 0
DWIDTH -7 0
BBX 6 2 -7 8
BITMAP
cc
cc
ENDCHAR
STARTCHAR ascii005d
ENCODING 383
SWIDTH 500 0
DWIDTH -7 0
BBX 4 3 -7 8
BITMAP
30
60
c0
ENDCHAR
STARTCHAR ascii006d
ENCODING 384
SWIDTH 714 0
DWIDTH -10 0
BBX 10 10 -10 0
BITMAP
6300
6300
6300
6300
6300
6300
ffc0
6300
6300
39c0
ENDCHAR
STARTCHAR ascii007d
ENCODING 385
SWIDTH 285 0
DWIDTH -4 0
BBX 3 5 -3 5
BITMAP
e0
e0
c0
c0
60
ENDCHAR
STARTCHAR ascii0010d
ENCODING 386
SWIDTH 357 0
DWIDTH -5 0
BBX 2 10 -3 0
BITMAP
c0
c0
c0
c0
c0
c0
c0
00
c0
c0
ENDCHAR
STARTCHAR ascii011d
ENCODING 387
SWIDTH 0 0
DWIDTH 0 0
COMMENT BBX 1 0 0 10 RSB <= CHAR_WIDTH to be a good font
BBX 0 0 0 10
BITMAP
ENDCHAR
STARTCHAR ascii012d
ENCODING 388
SWIDTH 0 0
DWIDTH 0 0
COMMENT BBX 1 0 0 10 RSB <= CHAR_WIDTH to be a good font
BBX 0 0 0 10
BITMAP
ENDCHAR
STARTCHAR ascii013d
ENCODING 389
SWIDTH 428 0
DWIDTH -6 0
BBX 4 3 -6 8
BITMAP
c0
60
30
ENDCHAR
STARTCHAR ascii014d
ENCODING 390
SWIDTH 0 0
DWIDTH 0 0
COMMENT BBX 1 0 0 10 RSB <= CHAR_WIDTH to be a good font
BBX 0 0 0 10
BITMAP
ENDCHAR
STARTCHAR ascii015d
ENCODING 391
SWIDTH 0 0
DWIDTH 0 0
COMMENT BBX 1 0 0 10 RSB <= CHAR_WIDTH to be a good font
BBX 0 0 0 10
BITMAP
ENDCHAR
STARTCHAR ascii016d
ENCODING 392
SWIDTH 500 0
DWIDTH -7 0
BBX 5 2 -7 8
BITMAP
f8
f8
ENDCHAR
STARTCHAR ascii017d
ENCODING 393
SWIDTH 1142 0
DWIDTH -16 0
BBX 0 0 -16 10
BITMAP
ENDCHAR
STARTCHAR ascii020d
ENCODING 394
SWIDTH 571 0
DWIDTH -8 0
BBX 7 2 -8 8
BITMAP
dc
76
ENDCHAR
STARTCHAR ascii021d
ENCODING 395
SWIDTH 1000 0
DWIDTH -14 0
BBX 13 10 -13 0
BITMAP
6318
6318
6318
6318
6318
6318
ffd8
6300
6318
39d8
ENDCHAR
STARTCHAR ascii022d
ENCODING 396
SWIDTH 1000 0
DWIDTH -14 0
BBX 13 10 -13 0
BITMAP
6318
6318
6318
6318
6318
6318
ffd8
6318
6318
39d8
ENDCHAR
STARTCHAR ascii023d
ENCODING 397
SWIDTH 1142 0
DWIDTH -16 0
BBX 16 2 -16 3
BITMAP
ffff
ffff
ENDCHAR
STARTCHAR ascii024d
ENCODING 398
SWIDTH 642 0
DWIDTH -9 0
BBX 8 10 -8 0
BITMAP
63
63
63
63
63
63
fb
60
63
3b
ENDCHAR
STARTCHAR ascii025d
ENCODING 399
SWIDTH 642 0
DWIDTH -9 0
BBX 8 10 -8 0
BITMAP
63
63
63
63
63
63
fb
63
63
3b
ENDCHAR
STARTCHAR ascii026d
ENCODING 400
SWIDTH 571 0
DWIDTH -8 0
BBX 8 2 -8 3
BITMAP
ff
ff
ENDCHAR
STARTCHAR ascii027d
ENCODING 401
SWIDTH 500 0
DWIDTH -7 0
BBX 6 3 -7 8
BITMAP
78
fc
84
ENDCHAR
STARTCHAR ascii030d
ENCODING 402
SWIDTH 1142 0
DWIDTH -16 0
BBX 8 2 -12 3
BITMAP
ff
ff
ENDCHAR
STARTCHAR ascii031d
ENCODING 403
SWIDTH 642 0
DWIDTH -9 0
BBX 0 0 -9 10
BITMAP
ENDCHAR
STARTCHAR ascii032d
ENCODING 404
SWIDTH 0 0
DWIDTH 0 0
COMMENT BBX 1 0 0 10 RSB <= CHAR_WIDTH to be a good font
BBX 0 0 0 10
BITMAP
ENDCHAR
STARTCHAR ascii033d
ENCODING 405
SWIDTH 0 0
DWIDTH 0 0
COMMENT BBX 1 0 0 10 RSB <= CHAR_WIDTH to be a good font
BBX 0 0 0 10
BITMAP
ENDCHAR
STARTCHAR ascii034d
ENCODING 406
SWIDTH 571 0
DWIDTH -8 0
BBX 0 0 -8 10
BITMAP
ENDCHAR
STARTCHAR ascii035d
ENCODING 407
SWIDTH 428 0
DWIDTH -6 0
BBX 2 2 -6 -3
BITMAP
c0
c0
ENDCHAR
STARTCHAR ascii036d
ENCODING 408
SWIDTH 571 0
DWIDTH -8 0
BBX 7 2 -8 8
BITMAP
dc
76
ENDCHAR
STARTCHAR ascii037d
ENCODING 409
SWIDTH 500 0
DWIDTH -7 0
BBX 5 4 -7 7
BITMAP
70
d8
d8
70
ENDCHAR
STARTCHAR spaced
ENCODING 410
SWIDTH 500 0
DWIDTH -7 0
BBX 0 0 -7 10
BITMAP
ENDCHAR
STARTCHAR exclamd
ENCODING 411
SWIDTH 285 0
DWIDTH -4 0
BBX 2 10 -3 0
BITMAP
c0
c0
00
c0
c0
c0
c0
c0
c0
c0
ENDCHAR
STARTCHAR quotedbld
ENCODING 412
SWIDTH 500 0
DWIDTH -7 0
BBX 5 4 -6 6
BITMAP
d8
d8
d8
d8
ENDCHAR
STARTCHAR numbersignd
ENCODING 413
SWIDTH 857 0
DWIDTH -12 0
BBX 10 10 -11 0
BITMAP
cc00
cc00
6600
ff80
3300
3300
7fc0
1980
0cc0
0cc0
ENDCHAR
STARTCHAR dollard
ENCODING 414
SWIDTH 642 0
DWIDTH -9 0
BBX 7 12 -8 -1
BITMAP
10
7c
d6
d6
16
3c
f8
d0
d6
d6
7c
10
ENDCHAR
STARTCHAR percentd
ENCODING 415
SWIDTH 1000 0
DWIDTH -14 0
BBX 12 10 -13 0
BITMAP
18e0
19b0
0db0
0ce0
0600
0600
7300
db00
d980
7180
ENDCHAR
STARTCHAR ampersandd
ENCODING 416
SWIDTH 785 0
DWIDTH -11 0
BBX 9 10 -10 0
BITMAP
7b80
cf00
c600
c700
7d80
3800
2800
6c00
6c00
3800
ENDCHAR
STARTCHAR quoterightd
ENCODING 417
SWIDTH 285 0
DWIDTH -4 0
BBX 3 5 -3 5
BITMAP
c0
60
60
e0
e0
ENDCHAR
STARTCHAR parenleftd
ENCODING 418
SWIDTH 428 0
DWIDTH -6 0
BBX 4 12 -5 -2
BITMAP
30
60
60
c0
c0
c0
c0
c0
c0
60
60
30
ENDCHAR
STARTCHAR parenrightd
ENCODING 419
SWIDTH 428 0
DWIDTH -6 0
BBX 4 12 -5 -2
BITMAP
c0
60
60
30
30
30
30
30
30
60
60
c0
ENDCHAR
STARTCHAR asteriskd
ENCODING 420
SWIDTH 500 0
DWIDTH -7 0
BBX 5 6 -6 5
BITMAP
20
a8
70
70
a8
20
ENDCHAR
STARTCHAR plusd
ENCODING 421
SWIDTH 714 0
DWIDTH -10 0
BBX 8 8 -9 0
BITMAP
18
18
18
ff
ff
18
18
18
ENDCHAR
STARTCHAR commad
ENCODING 422
SWIDTH 285 0
DWIDTH -4 0
BBX 2 5 -3 -3
BITMAP
80
40
40
c0
c0
ENDCHAR
STARTCHAR hyphend
ENCODING 423
SWIDTH 642 0
DWIDTH -9 0
BBX 6 2 -8 3
BITMAP
fc
fc
ENDCHAR
STARTCHAR periodd
ENCODING 424
SWIDTH 285 0
DWIDTH -4 0
BBX 2 2 -3 0
BITMAP
c0
c0
ENDCHAR
STARTCHAR slashd
ENCODING 425
SWIDTH 571 0
DWIDTH -8 0
BBX 6 10 -7 0
BITMAP
c0
c0
60
60
30
30
18
18
0c
0c
ENDCHAR
STARTCHAR zerod
ENCODING 426
SWIDTH 642 0
DWIDTH -9 0
BBX 7 10 -8 0
BITMAP
38
6c
c6
c6
c6
c6
c6
c6
6c
38
ENDCHAR
STARTCHAR oned
ENCODING 427
SWIDTH 642 0
DWIDTH -9 0
BBX 5 10 -7 0
BITMAP
18
18
18
18
18
18
18
f8
38
18
ENDCHAR
STARTCHAR twod
ENCODING 428
SWIDTH 642 0
DWIDTH -9 0
BBX 7 10 -8 0
BITMAP
fe
c0
60
30
18
0c
06
c6
c6
7c
ENDCHAR
STARTCHAR threed
ENCODING 429
SWIDTH 642 0
DWIDTH -9 0
BBX 7 10 -8 0
BITMAP
7c
c6
c6
06
06
1c
06
c6
c6
7c
ENDCHAR
STARTCHAR fourd
ENCODING 430
SWIDTH 642 0
DWIDTH -9 0
BBX 7 10 -8 0
BITMAP
0c
0c
fe
cc
cc
6c
2c
3c
1c
0c
ENDCHAR
STARTCHAR fived
ENCODING 431
SWIDTH 642 0
DWIDTH -9 0
BBX 7 10 -8 0
BITMAP
7c
c6
c6
06
c6
c6
fc
60
60
7e
ENDCHAR
STARTCHAR sixd
ENCODING 432
SWIDTH 642 0
DWIDTH -9 0
BBX 7 10 -8 0
BITMAP
7c
c6
c6
c6
c6
fc
c0
c6
66
3c
ENDCHAR
STARTCHAR sevend
ENCODING 433
SWIDTH 642 0
DWIDTH -9 0
BBX 7 10 -8 0
BITMAP
60
60
60
30
30
18
18
0c
06
fe
ENDCHAR
STARTCHAR eightd
ENCODING 434
SWIDTH 642 0
DWIDTH -9 0
BBX 7 10 -8 0
BITMAP
7c
c6
c6
c6
c6
7c
c6
c6
c6
7c
ENDCHAR
STARTCHAR nined
ENCODING 435
SWIDTH 642 0
DWIDTH -9 0
BBX 7 10 -8 0
BITMAP
78
cc
c6
06
7e
c6
c6
c6
c6
7c
ENDCHAR
STARTCHAR colond
ENCODING 436
SWIDTH 285 0
DWIDTH -4 0
BBX 2 7 -3 0
BITMAP
c0
c0
00
00
00
c0
c0
ENDCHAR
STARTCHAR semicolond
ENCODING 437
SWIDTH 285 0
DWIDTH -4 0
BBX 2 10 -3 -3
BITMAP
80
40
40
c0
c0
00
00
00
c0
c0
ENDCHAR
STARTCHAR lessd
ENCODING 438
SWIDTH 571 0
DWIDTH -8 0
BBX 6 10 -7 0
BITMAP
0c
18
30
60
c0
c0
60
30
18
0c
ENDCHAR
STARTCHAR equald
ENCODING 439
SWIDTH 571 0
DWIDTH -8 0
BBX 5 5 -7 1
BITMAP
f8
f8
00
f8
f8
ENDCHAR
STARTCHAR greaterd
ENCODING 440
SWIDTH 571 0
DWIDTH -8 0
BBX 6 10 -7 0
BITMAP
c0
60
30
18
0c
0c
18
30
60
c0
ENDCHAR
STARTCHAR questiond
ENCODING 441
SWIDTH 571 0
DWIDTH -8 0
BBX 6 10 -7 0
BITMAP
30
30
00
30
30
18
0c
cc
cc
78
ENDCHAR
STARTCHAR atd
ENCODING 442
SWIDTH 1000 0
DWIDTH -14 0
BBX 12 10 -13 0
BITMAP
3fe0
6010
cec0
d9a0
d9b0
d9b0
d9b0
cf30
6060
3fc0
ENDCHAR
STARTCHAR Ad
ENCODING 443
SWIDTH 642 0
DWIDTH -9 0
BBX 8 10 -8 0
BITMAP
c3
c3
66
7e
66
24
3c
3c
18
18
ENDCHAR
STARTCHAR Bd
ENCODING 444
SWIDTH 571 0
DWIDTH -8 0
BBX 7 10 -7 0
BITMAP
fc
c6
c6
c6
c6
fc
cc
cc
cc
f8
ENDCHAR
STARTCHAR Cd
ENCODING 445
SWIDTH 642 0
DWIDTH -9 0
BBX 8 10 -8 0
BITMAP
3e
63
c3
c3
c0
c0
c0
c3
63
3e
ENDCHAR
STARTCHAR Dd
ENCODING 446
SWIDTH 642 0
DWIDTH -9 0
BBX 8 10 -8 0
BITMAP
fc
c6
c3
c3
c3
c3
c3
c3
c6
fc
ENDCHAR
STARTCHAR Ed
ENCODING 447
SWIDTH 571 0
DWIDTH -8 0
BBX 7 10 -7 0
BITMAP
fe
c0
c0
c0
c0
fc
c0
c0
c0
fe
ENDCHAR
STARTCHAR Fd
ENCODING 448
SWIDTH 571 0
DWIDTH -8 0
BBX 7 10 -7 0
BITMAP
c0
c0
c0
c0
c0
fc
c0
c0
c0
fe
ENDCHAR
STARTCHAR Gd
ENCODING 449
SWIDTH 714 0
DWIDTH -10 0
BBX 9 10 -9 0
BITMAP
3d80
6380
c180
c180
c780
c000
c000
c180
6180
3f00
ENDCHAR
STARTCHAR Hd
ENCODING 450
SWIDTH 642 0
DWIDTH -9 0
BBX 8 10 -8 0
BITMAP
c3
c3
c3
c3
c3
ff
c3
c3
c3
c3
ENDCHAR
STARTCHAR Id
ENCODING 451
SWIDTH 214 0
DWIDTH -3 0
BBX 2 10 -2 0
BITMAP
c0
c0
c0
c0
c0
c0
c0
c0
c0
c0
ENDCHAR
STARTCHAR Jd
ENCODING 452
SWIDTH 500 0
DWIDTH -7 0
BBX 6 10 -6 0
BITMAP
78
cc
cc
0c
0c
0c
0c
0c
0c
0c
ENDCHAR
STARTCHAR Kd
ENCODING 453
SWIDTH 642 0
DWIDTH -9 0
BBX 8 10 -8 0
BITMAP
c3
c6
cc
d8
f0
e0
f0
d8
cc
c6
ENDCHAR
STARTCHAR Ld
ENCODING 454
SWIDTH 500 0
DWIDTH -7 0
BBX 6 10 -6 0
BITMAP
fc
c0
c0
c0
c0
c0
c0
c0
c0
c0
ENDCHAR
STARTCHAR Md
ENCODING 455
SWIDTH 857 0
DWIDTH -12 0
BBX 11 10 -11 0
BITMAP
c460
ce60
ce60
db60
db60
db60
f1e0
f1e0
e0e0
e0e0
ENDCHAR
STARTCHAR Nd
ENCODING 456
SWIDTH 642 0
DWIDTH -9 0
BBX 8 10 -8 0
BITMAP
c7
cf
cf
db
db
f3
f3
e3
e3
c3
ENDCHAR
STARTCHAR Od
ENCODING 457
SWIDTH 714 0
DWIDTH -10 0
BBX 9 10 -9 0
BITMAP
3e00
6300
c180
c180
c180
c180
c180
c180
6300
3e00
ENDCHAR
STARTCHAR Pd
ENCODING 458
SWIDTH 571 0
DWIDTH -8 0
BBX 7 10 -7 0
BITMAP
c0
c0
c0
c0
fc
c6
c6
c6
c6
fc
ENDCHAR
STARTCHAR Qd
ENCODING 459
SWIDTH 714 0
DWIDTH -10 0
BBX 9 11 -9 -1
BITMAP
0180
3f00
6700
cd80
c180
c180
c180
c180
c180
6300
3e00
ENDCHAR
STARTCHAR Rd
ENCODING 460
SWIDTH 642 0
DWIDTH -9 0
BBX 8 10 -8 0
BITMAP
c3
c3
c3
c3
c3
fe
c3
c3
c3
fe
ENDCHAR
STARTCHAR Sd
ENCODING 461
SWIDTH 571 0
DWIDTH -8 0
BBX 7 10 -7 0
BITMAP
7c
c6
c6
c6
1e
7c
f0
c6
c6
7c
ENDCHAR
STARTCHAR Td
ENCODING 462
SWIDTH 642 0
DWIDTH -9 0
BBX 8 10 -8 0
BITMAP
18
18
18
18
18
18
18
18
18
ff
ENDCHAR
STARTCHAR Ud
ENCODING 463
SWIDTH 642 0
DWIDTH -9 0
BBX 8 10 -8 0
BITMAP
3c
66
c3
c3
c3
c3
c3
c3
c3
c3
ENDCHAR
STARTCHAR Vd
ENCODING 464
SWIDTH 642 0
DWIDTH -9 0
BBX 8 10 -8 0
BITMAP
18
18
3c
24
66
66
66
c3
c3
c3
ENDCHAR
STARTCHAR Wd
ENCODING 465
SWIDTH 1000 0
DWIDTH -14 0
BBX 13 10 -13 0
BITMAP
18c0
18c0
38e0
3de0
2fa0
6730
6730
6730
c218
c218
ENDCHAR
STARTCHAR Xd
ENCODING 466
SWIDTH 642 0
DWIDTH -9 0
BBX 8 10 -8 0
BITMAP
c3
c3
66
3c
18
18
3c
66
c3
c3
ENDCHAR
STARTCHAR Yd
ENCODING 467
SWIDTH 642 0
DWIDTH -9 0
BBX 8 10 -8 0
BITMAP
18
18
18
18
18
3c
66
66
c3
c3
ENDCHAR
STARTCHAR Zd
ENCODING 468
SWIDTH 642 0
DWIDTH -9 0
BBX 8 10 -8 0
BITMAP
ff
c0
60
30
18
18
0c
06
03
ff
ENDCHAR
STARTCHAR braketleftd
ENCODING 469
SWIDTH 500 0
DWIDTH -7 0
BBX 5 13 -6 -3
BITMAP
f8
c0
c0
c0
c0
c0
c0
c0
c0
c0
c0
c0
f8
ENDCHAR
STARTCHAR backslashd
ENCODING 470
SWIDTH 571 0
DWIDTH -8 0
BBX 6 10 -7 0
BITMAP
0c
0c
18
18
30
30
60
60
c0
c0
ENDCHAR
STARTCHAR bracketrightd
ENCODING 471
SWIDTH 500 0
DWIDTH -7 0
BBX 5 13 -6 -3
BITMAP
f8
18
18
18
18
18
18
18
18
18
18
18
f8
ENDCHAR
STARTCHAR asciicircumd
ENCODING 472
SWIDTH 571 0
DWIDTH -8 0
BBX 6 8 -7 1
BITMAP
30
30
30
30
b4
fc
78
30
ENDCHAR
STARTCHAR underscored
ENCODING 473
SWIDTH 714 0
DWIDTH -10 0
BBX 8 6 -9 2
BITMAP
30
60
ff
ff
60
30
ENDCHAR
STARTCHAR quoteleftd
ENCODING 474
SWIDTH 285 0
DWIDTH -4 0
BBX 3 5 -3 5
BITMAP
e0
e0
c0
c0
60
ENDCHAR
STARTCHAR ad
ENCODING 475
SWIDTH 571 0
DWIDTH -8 0
BBX 7 7 -7 0
BITMAP
76
cc
cc
7c
0c
cc
78
ENDCHAR
STARTCHAR bd
ENCODING 476
SWIDTH 571 0
DWIDTH -8 0
BBX 7 10 -7 0
BITMAP
fc
c6
c6
c6
c6
c6
fc
c0
c0
c0
ENDCHAR
STARTCHAR cd
ENCODING 477
SWIDTH 571 0
DWIDTH -8 0
BBX 7 7 -7 0
BITMAP
7c
c6
c6
c0
c0
c6
7c
ENDCHAR
STARTCHAR dd
ENCODING 478
SWIDTH 571 0
DWIDTH -8 0
BBX 7 10 -7 0
BITMAP
7e
c6
c6
c6
c6
c6
7e
06
06
06
ENDCHAR
STARTCHAR ed
ENCODING 479
SWIDTH 571 0
DWIDTH -8 0
BBX 7 7 -7 0
BITMAP
7c
c6
c0
fe
c6
c6
7c
ENDCHAR
STARTCHAR fd
ENCODING 480
SWIDTH 428 0
DWIDTH -6 0
BBX 5 10 -5 0
BITMAP
60
60
60
60
60
60
f8
60
60
38
ENDCHAR
STARTCHAR gd
ENCODING 481
SWIDTH 571 0
DWIDTH -8 0
BBX 7 10 -7 -3
BITMAP
7c
c6
06
7e
c6
c6
c6
c6
c6
7e
ENDCHAR
STARTCHAR hd
ENCODING 482
SWIDTH 571 0
DWIDTH -8 0
BBX 7 10 -7 0
BITMAP
c6
c6
c6
c6
c6
c6
fc
c0
c0
c0
ENDCHAR
STARTCHAR id
ENCODING 483
SWIDTH 214 0
DWIDTH -3 0
BBX 2 10 -2 0
BITMAP
c0
c0
c0
c0
c0
c0
c0
00
c0
c0
ENDCHAR
STARTCHAR jd
ENCODING 484
SWIDTH 357 0
DWIDTH -5 0
BBX 4 12 -4 -2
BITMAP
e0
30
30
30
30
30
30
30
30
00
30
30
ENDCHAR
STARTCHAR kd
ENCODING 485
SWIDTH 571 0
DWIDTH -8 0
BBX 7 10 -7 0
BITMAP
c6
cc
d8
f0
f0
d8
cc
c0
c0
c0
ENDCHAR
STARTCHAR ld
ENCODING 486
SWIDTH 214 0
DWIDTH -3 0
BBX 2 10 -2 0
BITMAP
c0
c0
c0
c0
c0
c0
c0
c0
c0
c0
ENDCHAR
STARTCHAR md
ENCODING 487
SWIDTH 785 0
DWIDTH -11 0
BBX 10 7 -10 0
BITMAP
ccc0
ccc0
ccc0
ccc0
ccc0
ccc0
fb80
ENDCHAR
STARTCHAR nd
ENCODING 488
SWIDTH 571 0
DWIDTH -8 0
BBX 7 7 -7 0
BITMAP
c6
c6
c6
c6
c6
c6
fc
ENDCHAR
STARTCHAR od
ENCODING 489
SWIDTH 571 0
DWIDTH -8 0
BBX 7 7 -7 0
BITMAP
7c
c6
c6
c6
c6
c6
7c
ENDCHAR
STARTCHAR pd
ENCODING 490
SWIDTH 571 0
DWIDTH -8 0
BBX 7 10 -7 -3
BITMAP
c0
c0
c0
fc
c6
c6
c6
c6
c6
fc
ENDCHAR
STARTCHAR qd
ENCODING 491
SWIDTH 571 0
DWIDTH -8 0
BBX 7 10 -7 -3
BITMAP
06
06
06
7e
c6
c6
c6
c6
c6
7e
ENDCHAR
STARTCHAR rd
ENCODING 492
SWIDTH 428 0
DWIDTH -6 0
BBX 5 7 -5 0
BITMAP
c0
c0
c0
c0
c0
d8
f8
ENDCHAR
STARTCHAR sd
ENCODING 493
SWIDTH 500 0
DWIDTH -7 0
BBX 6 7 -6 0
BITMAP
78
cc
1c
78
e0
cc
78
ENDCHAR
STARTCHAR td
ENCODING 494
SWIDTH 428 0
DWIDTH -6 0
BBX 5 9 -5 0
BITMAP
38
60
60
60
60
60
f8
60
60
ENDCHAR
STARTCHAR ud
ENCODING 495
SWIDTH 571 0
DWIDTH -8 0
BBX 7 7 -7 0
BITMAP
7e
c6
c6
c6
c6
c6
c6
ENDCHAR
STARTCHAR vd
ENCODING 496
SWIDTH 642 0
DWIDTH -9 0
BBX 8 7 -8 0
BITMAP
18
3c
24
66
66
c3
c3
ENDCHAR
STARTCHAR wd
ENCODING 497
SWIDTH 857 0
DWIDTH -12 0
BBX 11 7 -11 0
BITMAP
3180
3180
7bc0
6ec0
6ec0
c460
c460
ENDCHAR
STARTCHAR xd
ENCODING 498
SWIDTH 500 0
DWIDTH -7 0
BBX 6 7 -6 0
BITMAP
cc
cc
78
30
78
cc
cc
ENDCHAR
STARTCHAR yd
ENCODING 499
SWIDTH 571 0
DWIDTH -8 0
BBX 7 10 -7 -3
BITMAP
70
d8
18
18
3c
2c
6c
66
c6
c6
ENDCHAR
STARTCHAR zd
ENCODING 500
SWIDTH 500 0
DWIDTH -7 0
BBX 6 7 -6 0
BITMAP
fc
c0
60
30
18
0c
fc
ENDCHAR
STARTCHAR braceleftd
ENCODING 501
SWIDTH 571 0
DWIDTH -8 0
BBX 6 13 -7 -3
BITMAP
1c
30
30
30
30
30
e0
30
30
30
30
30
1c
ENDCHAR
STARTCHAR bard
ENCODING 502
SWIDTH 357 0
DWIDTH -5 0
BBX 2 13 -4 -3
BITMAP
c0
c0
c0
c0
c0
c0
c0
c0
c0
c0
c0
c0
c0
ENDCHAR
STARTCHAR bracerightd
ENCODING 503
SWIDTH 571 0
DWIDTH -8 0
BBX 6 13 -7 -3
BITMAP
e0
30
30
30
30
30
1c
30
30
30
30
30
e0
ENDCHAR
STARTCHAR tildad
ENCODING 504
SWIDTH 714 0
DWIDTH -10 0
BBX 8 3 -9 3
BITMAP
cc
7e
33
ENDCHAR
ENDFONT
